<?xml version="1.0" standalone="no"?>
<!DOCTYPE svg PUBLIC "-//W3C//DTD SVG 20010904//EN"
 "http://www.w3.org/TR/2001/REC-SVG-20010904/DTD/svg10.dtd">
<svg version="1.0" xmlns="http://www.w3.org/2000/svg"
 width="892.000000pt" height="757.000000pt" viewBox="0 0 892.000000 757.000000"
 preserveAspectRatio="xMidYMid meet">
<metadata>
Created by potrace 1.16, written by Peter Selinger 2001-2019
</metadata>
<g transform="translate(0.000000,757.000000) scale(0.100000,-0.100000)"
fill="#000000" stroke="none">
<path d="M3699 6577 c9 -23 7 -25 -24 -31 -19 -4 -53 -2 -76 4 -23 6 -47 9
-55 6 -8 -3 -24 -2 -36 3 -15 6 -32 4 -48 -4 -14 -7 -51 -20 -82 -29 -32 -10
-58 -22 -58 -29 0 -19 -109 -129 -120 -122 -6 3 -13 -1 -16 -9 -3 -9 -12 -16
-19 -16 -12 0 -30 -84 -21 -99 3 -4 6 -38 7 -76 2 -60 0 -70 -14 -67 -10 2
-17 -2 -17 -8 0 -5 6 -10 14 -10 9 0 18 -19 25 -52 7 -31 21 -60 36 -74 40
-37 34 -78 -15 -110 -22 -15 -40 -31 -40 -36 0 -5 -4 -6 -10 -3 -5 3 -17 2
-27 -3 -15 -9 -42 -4 -93 16 -8 3 -23 6 -32 7 -10 1 -29 10 -42 19 -14 9 -36
16 -50 16 -14 0 -27 4 -30 9 -4 5 -31 17 -61 27 -44 13 -61 15 -81 6 -21 -10
-23 -15 -14 -32 8 -14 8 -26 0 -40 -15 -27 -8 -35 45 -55 34 -13 45 -23 47
-42 2 -18 16 -32 46 -49 24 -14 47 -22 53 -19 5 4 9 1 9 -5 0 -7 6 -10 14 -7
10 4 12 0 9 -14 -3 -10 0 -19 6 -19 6 0 11 5 11 10 0 17 28 11 33 -7 4 -17 5
-17 6 0 1 21 16 22 33 2 7 -9 20 -24 29 -33 24 -25 48 -252 27 -252 -6 0 -8
-19 -7 -43 4 -39 2 -43 -16 -40 -19 4 -19 4 -2 -10 22 -18 22 -29 1 -25 -26 5
-27 -17 -2 -30 14 -6 17 -11 8 -11 -8 -1 -21 -11 -29 -23 -17 -27 -24 -95 -11
-103 6 -3 10 -23 10 -43 1 -49 22 -85 51 -87 24 -2 49 15 49 34 0 19 39 12 80
-15 39 -26 50 -50 31 -70 -5 -5 -5 -19 0 -32 11 -28 28 -21 81 36 21 22 46 42
58 45 18 5 20 0 20 -36 0 -67 31 -90 73 -56 38 29 102 21 102 -13 0 -7 7 -13
15 -13 10 0 16 12 18 37 4 44 67 118 101 118 22 0 60 45 82 98 8 17 17 32 20
32 11 0 69 54 69 64 0 13 41 46 58 46 9 0 24 7 34 16 15 14 20 15 34 3 12 -10
15 -25 12 -61 -7 -73 28 -91 81 -40 16 15 40 37 53 48 12 12 39 39 58 59 19
21 55 51 78 66 24 15 52 43 62 61 9 18 21 33 26 33 63 3 74 25 79 154 5 91 8
101 39 101 15 0 32 10 43 25 52 73 45 70 81 40 29 -24 32 -32 32 -81 0 -42 4
-55 19 -64 25 -13 71 -13 71 0 0 5 7 7 15 4 23 -9 45 -103 38 -165 -6 -50 -5
-53 10 -40 20 16 23 8 5 -11 -33 -34 -38 -77 -17 -144 21 -69 48 -95 75 -73
10 8 14 33 14 80 0 66 6 81 38 85 6 1 26 14 43 28 17 14 41 26 54 26 22 0 23
4 21 48 -3 56 -15 102 -27 102 -15 0 -59 54 -59 73 0 11 -14 32 -31 48 -31 29
-31 30 -13 44 10 8 25 15 32 15 7 0 17 11 22 25 7 18 17 25 35 25 15 0 24 4
20 10 -4 6 8 10 27 10 19 0 39 5 46 12 9 9 19 5 42 -22 26 -31 29 -40 24 -77
-5 -34 -3 -44 10 -49 9 -4 21 -15 27 -26 11 -21 3 -61 -12 -53 -5 4 -9 0 -9
-7 0 -9 -2 -10 -8 -1 -4 6 -15 13 -25 15 -17 3 -19 -5 -21 -82 -1 -47 -6 -94
-13 -105 -26 -47 -36 -81 -47 -160 -6 -45 -30 -95 -44 -90 -7 2 -10 0 -7 -5 3
-6 12 -10 20 -10 37 0 34 -100 -5 -173 -20 -39 -30 -71 -30 -101 0 -52 6 -59
48 -47 26 8 35 5 57 -15 14 -13 30 -24 34 -24 12 0 51 45 51 59 0 24 33 77 71
113 22 20 39 41 39 45 0 18 46 53 69 53 34 0 57 33 65 90 6 43 21 93 34 110 2
2 7 -2 13 -10 8 -12 14 -10 37 16 30 35 72 51 72 28 0 -8 -6 -14 -14 -14 -9 0
-14 -14 -14 -45 -1 -27 -8 -52 -17 -61 -8 -9 -15 -22 -15 -30 0 -9 -7 -22 -16
-31 -9 -9 -12 -22 -8 -32 4 -9 7 -25 7 -36 -1 -32 17 -73 35 -79 9 -3 32 -17
51 -31 37 -27 95 -34 108 -12 4 6 15 12 23 12 11 0 16 15 20 55 5 59 32 98 62
92 17 -3 38 -50 38 -83 0 -24 43 -35 76 -20 14 6 29 9 33 6 5 -2 23 9 41 25
17 16 49 31 69 35 60 10 62 14 71 128 9 107 27 157 56 157 8 0 14 7 14 15 0 8
5 15 10 15 6 0 10 7 10 15 0 14 51 74 121 144 15 14 39 49 54 76 15 28 30 52
34 55 3 3 14 17 24 32 14 22 17 51 17 158 0 103 3 136 16 155 9 14 22 25 29
25 7 0 15 4 17 8 8 20 102 81 143 92 26 7 49 19 52 27 3 7 9 13 14 13 10 0 69
39 79 51 3 4 16 10 28 14 27 8 63 40 55 48 -3 3 4 12 16 19 26 16 28 31 4 26
-10 -2 -18 -10 -18 -18 0 -9 -8 -14 -20 -12 -36 6 -89 2 -123 -9 -18 -6 -40
-8 -49 -5 -24 9 -194 8 -228 -2 -20 -5 -31 -16 -33 -30 -2 -12 -7 -22 -12 -22
-5 0 -8 -8 -7 -17 1 -25 -54 -163 -66 -163 -5 0 -7 -7 -3 -15 3 -8 1 -15 -5
-15 -6 0 -10 -10 -9 -22 1 -13 2 -30 1 -38 -1 -13 -2 -13 -11 0 -6 10 -10 11
-10 3 0 -7 -4 -13 -10 -13 -5 0 -10 8 -10 18 0 10 -5 23 -11 29 -14 14 -3 183
14 209 7 12 4 41 -7 51 -15 15 -337 12 -403 -4 -34 -8 -67 -12 -72 -8 -13 7
-73 -23 -67 -34 3 -4 -11 -13 -32 -19 -30 -9 -41 -9 -60 4 -23 15 -26 15 -51
-3 -37 -27 -59 -34 -65 -20 -3 9 -5 8 -5 -1 -1 -7 -5 -11 -11 -7 -5 3 -25 -1
-45 -9 l-36 -15 -27 44 c-26 43 -28 44 -80 45 -29 0 -51 -4 -48 -9 7 -10 -122
-26 -132 -16 -4 3 0 10 8 15 10 7 -5 10 -47 10 -34 0 -65 5 -68 10 -3 6 -17
10 -30 10 -12 0 -25 7 -29 15 -3 8 -14 15 -25 15 -11 0 -21 6 -23 13 -3 8 -35
13 -99 15 -52 2 -103 7 -114 12 -19 8 -59 19 -97 26 -9 2 -34 13 -55 24 -21
10 -47 21 -58 23 -11 2 -28 7 -38 12 -10 4 -30 8 -45 9 -35 2 -55 15 -48 31 2
7 -6 23 -20 36 -13 12 -24 19 -24 14 0 -5 -7 0 -15 11 -8 10 -15 15 -15 9 0
-5 -5 -3 -11 5 -8 12 -9 11 -5 -5 4 -15 1 -21 -12 -22 -35 -3 -56 -10 -60 -21
-2 -7 -8 -12 -14 -12 -5 0 -16 -7 -24 -15 -9 -8 -34 -15 -57 -15 -32 0 -39 -3
-27 -11 12 -8 12 -10 1 -7 -8 2 -18 11 -22 19 -22 40 -39 84 -39 96 0 8 -5 24
-12 36 -11 21 -11 21 -19 2 -6 -16 -8 -17 -8 -3 -1 11 -14 18 -41 23 -44 7
-80 -11 -132 -68 -22 -24 -30 -28 -42 -18 -11 9 -15 9 -18 0 -5 -16 -48 -2
-48 16 0 7 6 15 12 17 8 3 3 14 -15 30 -17 16 -24 29 -17 33 15 9 12 41 -5 55
-14 11 -14 10 -6 -13z"/>
<path d="M2025 4590 c-11 -4 -45 -13 -75 -20 -30 -7 -60 -17 -66 -22 -7 -5
-20 -11 -30 -13 -85 -21 -198 -60 -329 -115 -158 -65 -175 -88 -174 -227 1
-169 26 -473 39 -473 4 0 11 -16 14 -35 21 -113 116 -334 161 -376 13 -13 25
-31 25 -39 0 -17 24 -52 53 -78 9 -9 17 -21 17 -27 0 -6 18 -28 40 -50 21 -22
39 -44 40 -49 0 -13 118 -126 131 -126 10 0 122 -90 172 -138 10 -9 22 -17 26
-17 4 0 25 -14 46 -31 22 -17 58 -38 80 -48 22 -9 49 -21 60 -26 57 -26 99
-40 117 -40 10 0 36 -9 58 -20 89 -46 460 -72 511 -36 13 9 32 16 42 16 25 0
107 43 137 72 52 49 72 57 138 49 66 -8 72 -4 72 45 0 15 -6 24 -15 24 -8 0
-15 4 -15 10 0 5 7 7 15 4 13 -6 21 17 16 48 0 4 19 27 43 52 24 24 47 53 50
64 4 10 17 24 30 30 13 6 36 28 51 49 32 45 74 67 163 87 63 14 122 7 122 -15
0 -5 7 -9 15 -9 9 0 20 -11 25 -25 5 -14 16 -25 25 -25 8 0 15 -9 15 -20 0
-11 8 -23 18 -27 28 -10 83 -71 138 -153 95 -143 125 -179 148 -180 10 0 103
-69 158 -116 76 -67 240 -133 423 -171 122 -25 569 -26 655 -1 30 9 71 19 90
22 58 10 220 56 310 88 126 45 144 52 170 69 14 8 48 23 75 33 95 34 180 70
216 92 20 13 65 35 100 49 92 38 139 93 139 162 0 19 -4 32 -9 29 -5 -3 -11 4
-15 17 -3 12 -1 23 3 25 13 4 -5 64 -23 77 -7 6 -22 28 -33 50 -12 22 -30 49
-42 59 -25 23 -27 39 -5 57 13 11 14 27 9 105 -7 89 -6 95 23 156 37 76 86
146 129 182 27 23 51 69 59 114 2 11 -9 16 -29 13 -4 -1 -40 5 -80 13 -39 8
-99 17 -132 20 -124 12 -163 16 -285 26 -69 6 -152 12 -185 15 -67 6 -160 11
-375 21 -111 5 -169 3 -245 -9 -128 -21 -242 -34 -381 -46 -60 -6 -130 -15
-155 -21 -40 -9 -351 -60 -459 -75 -24 -3 -49 -10 -55 -14 -25 -19 -164 -32
-238 -22 -47 7 -86 7 -107 1 -18 -5 -58 -7 -89 -5 -31 3 -83 7 -116 8 -33 2
-71 9 -85 17 -32 17 -121 40 -132 34 -4 -3 -19 8 -33 24 -20 24 -37 32 -78 37
-28 4 -62 16 -75 26 -16 13 -33 16 -53 12 -20 -4 -35 0 -48 11 -13 12 -30 15
-60 11 -27 -3 -41 -1 -41 7 0 6 -3 9 -6 6 -3 -3 -16 5 -29 18 -13 13 -32 24
-43 24 -20 0 -61 41 -81 82 -17 34 -90 53 -163 44 -48 -7 -50 -6 -37 10 12 16
12 17 -3 11 -9 -3 -22 1 -29 9 -7 8 -20 12 -31 8 -12 -3 -27 1 -39 11 -14 14
-22 15 -33 6 -7 -6 -22 -9 -32 -5 -37 12 -69 29 -80 43 -10 13 -30 18 -81 20
-16 1 -23 7 -23 22 0 14 -5 19 -15 16 -8 -4 -24 6 -38 24 -13 17 -31 31 -40
33 -9 1 -37 17 -61 35 -35 26 -46 42 -50 70 -6 45 -6 72 1 91 11 32 9 81 -3
91 -8 6 -25 9 -39 6 -14 -2 -23 -2 -21 1 5 4 -38 43 -46 41 -1 0 -12 -4 -23
-9z"/>
<path d="M3380 2451 c0 -5 -12 -12 -27 -14 -27 -4 -28 -4 -5 -12 14 -5 21 -13
18 -21 -3 -8 1 -14 9 -14 9 0 15 -10 15 -25 0 -14 5 -25 10 -25 6 0 10 9 10
19 0 11 5 23 11 27 9 5 10 -6 7 -39 -3 -25 -2 -47 3 -49 4 -2 9 -10 11 -18 4
-20 32 -50 59 -64 12 -6 27 -20 33 -31 26 -47 90 -81 122 -66 13 6 24 15 24
21 0 6 13 23 28 38 16 15 37 40 48 56 10 16 29 43 40 60 l22 32 -34 22 c-19
13 -36 18 -39 12 -3 -6 -15 -10 -25 -10 -10 0 -37 -18 -61 -41 -48 -46 -59
-41 -59 31 0 37 -5 50 -30 73 -23 22 -30 25 -30 13 0 -31 -31 -30 -56 0 l-23
29 -1 -27 c0 -18 -5 -28 -14 -28 -10 0 -14 9 -13 28 2 23 -2 28 -25 30 -16 2
-28 -1 -28 -7z"/>
</g>
</svg>
