<?xml version="1.0" standalone="no"?>
<!DOCTYPE svg PUBLIC "-//W3C//DTD SVG 20010904//EN"
 "http://www.w3.org/TR/2001/REC-SVG-20010904/DTD/svg10.dtd">
<svg version="1.0" xmlns="http://www.w3.org/2000/svg"
 width="911.000000pt" height="989.000000pt" viewBox="0 0 911.000000 989.000000"
 preserveAspectRatio="xMidYMid meet">
<metadata>
Created by potrace 1.16, written by Peter Selinger 2001-2019
</metadata>
<g transform="translate(0.000000,989.000000) scale(0.100000,-0.100000)"
fill="#000000" stroke="none">
<path d="M0 8700 c0 -689 4 -1190 9 -1190 5 0 7 -9 4 -21 -4 -15 0 -22 16 -26
30 -8 26 -21 -4 -15 -15 2 -25 0 -25 -7 0 -6 6 -11 13 -11 9 0 9 -2 -1 -8 -15
-10 -15 -132 1 -132 6 0 6 -4 0 -12 -16 -21 -17 -158 -1 -158 9 0 9 -3 2 -8
-13 -9 -17 -122 -4 -122 6 0 10 -7 10 -15 0 -8 -5 -15 -11 -15 -14 0 -6 -117
10 -133 16 -16 14 -40 -4 -33 -9 3 -15 0 -15 -9 0 -19 35 -28 60 -15 17 9 20
8 20 -7 0 -15 2 -15 9 -3 6 8 7 18 5 22 -3 4 0 8 6 8 7 0 9 7 6 16 -8 20 22
77 36 68 7 -5 5 -12 -7 -21 -11 -7 -13 -13 -6 -13 16 0 42 -26 33 -34 -3 -4 4
-9 16 -13 18 -4 22 -12 20 -36 -2 -16 2 -32 8 -34 7 -2 12 11 12 37 1 34 -2
40 -19 40 -12 0 -19 5 -16 13 2 7 15 11 30 9 23 -3 27 0 28 25 1 27 1 27 8 4
10 -36 28 -37 23 -1 -2 16 -8 30 -13 30 -13 0 -11 54 3 68 9 9 8 15 -5 24 -15
11 -16 17 -5 46 14 37 52 45 61 12 5 -20 27 -28 27 -10 0 6 -4 10 -10 10 -5 0
-10 9 -10 20 0 16 -7 20 -31 20 -24 0 -30 3 -25 16 3 9 6 25 6 36 0 28 32 19
41 -12 7 -25 7 -25 8 3 1 37 -15 67 -37 68 -14 0 -14 2 -2 6 22 9 30 25 20 42
-4 9 -6 32 -4 51 3 19 6 44 7 54 1 10 10 21 20 24 16 4 18 12 13 53 -5 40 -3
49 9 49 8 0 15 7 15 16 0 13 -3 14 -15 4 -12 -10 -16 -9 -21 4 -4 11 -11 13
-23 7 -9 -6 -23 -6 -30 -2 -16 10 8 21 48 21 15 0 32 5 38 11 7 7 12 -2 17
-31 3 -23 4 -45 1 -51 -10 -16 4 -10 25 11 22 22 26 40 10 40 -5 0 -10 -5 -10
-12 0 -7 -3 -8 -9 -2 -13 14 -22 92 -11 99 5 3 10 13 10 21 0 11 -6 13 -20 9
-11 -4 -20 -2 -20 4 0 6 -7 11 -15 11 -8 0 -16 6 -17 13 0 6 -4 -8 -7 -32 -6
-41 -8 -44 -38 -47 -18 -2 -33 1 -33 6 0 6 11 10 25 10 25 0 31 14 26 64 -1
16 4 18 30 12 25 -5 30 -3 25 9 -7 19 21 32 36 17 7 -7 4 -14 -11 -21 -12 -7
-21 -16 -21 -21 0 -17 44 -10 68 9 23 20 30 51 12 51 -6 0 -10 -7 -8 -16 2
-10 -3 -19 -11 -22 -10 -3 -13 1 -9 16 5 17 0 21 -36 25 -29 5 -44 2 -52 -8
-14 -19 -24 -19 -24 0 0 9 -9 15 -24 15 -13 0 -26 7 -30 15 -3 8 -2 14 2 14
34 -5 45 23 15 39 -15 9 -15 11 -1 26 23 22 24 21 25 -26 2 -37 14 -57 36 -58
4 0 7 7 7 15 0 8 -7 15 -15 15 -8 0 -15 5 -15 10 0 14 13 13 29 -2 11 -10 14
-10 18 0 3 6 11 12 20 12 8 0 13 -6 11 -12 -3 -7 -11 -13 -18 -13 -7 0 -15 -6
-17 -12 -8 -24 34 -13 51 12 16 24 56 35 56 15 0 -5 -9 -10 -20 -10 -12 0 -20
-7 -20 -16 0 -15 2 -15 25 0 34 22 48 21 35 -3 -14 -26 -13 -31 5 -25 8 4 15
16 15 29 0 25 -43 49 -76 43 -21 -4 -32 28 -15 45 8 8 11 6 11 -8 0 -18 0 -18
15 1 19 25 20 51 1 35 -19 -16 -146 -11 -139 5 2 7 14 15 26 18 17 4 19 8 10
17 -9 9 -16 9 -28 -1 -13 -11 -14 -10 -9 4 3 9 15 16 25 16 10 0 19 5 19 10 0
6 5 10 11 10 9 0 7 -16 -8 -57 -3 -8 4 -13 18 -13 29 0 43 9 52 33 5 12 1 17
-13 17 -27 0 -33 16 -13 36 10 10 18 21 18 26 0 5 5 12 12 16 19 12 5 51 -16
45 -10 -2 -23 2 -29 10 -9 11 -5 13 23 13 31 -1 36 -4 41 -33 3 -18 10 -33 14
-33 9 0 22 61 15 68 -3 3 -5 0 -5 -6 0 -7 -5 -12 -11 -12 -6 0 -9 9 -6 20 4
14 0 20 -11 20 -11 0 -13 3 -6 8 21 13 26 49 9 56 -13 4 -15 1 -10 -14 4 -14
2 -20 -9 -20 -10 0 -15 8 -13 22 1 14 -4 23 -15 26 -12 2 -18 -3 -18 -13 0
-15 -3 -15 -16 -5 -14 12 -13 15 1 29 13 13 20 13 47 3 25 -9 34 -9 40 1 12
19 9 34 -7 41 -9 3 -12 12 -8 22 6 15 7 15 17 1 12 -16 34 -21 76 -17 21 2 20
3 -10 10 -19 5 -38 6 -42 4 -5 -3 -8 6 -8 20 0 16 -6 26 -15 26 -8 0 -15 4
-15 9 0 13 34 8 43 -7 5 -7 13 -10 18 -7 5 4 7 11 4 16 -4 5 -1 9 5 9 8 0 9
-11 5 -32 -7 -32 -7 -33 12 -15 11 9 25 17 31 17 7 0 12 6 12 14 0 7 3 28 7
46 4 23 3 31 -5 26 -6 -4 -14 -23 -18 -42 -7 -38 -18 -35 -28 9 -4 16 -2 27 4
27 5 0 10 7 10 15 0 10 -10 15 -27 16 -16 0 -37 5 -48 10 -19 9 -19 9 1 6 13
-3 25 3 32 14 17 27 15 30 -14 18 -15 -5 -29 -8 -31 -5 -3 2 5 7 16 11 12 3
21 11 21 16 0 14 30 11 31 -3 1 -7 0 -23 -1 -35 -1 -13 4 -23 10 -23 7 0 10 7
7 15 -4 8 -2 17 3 20 6 4 10 -5 10 -19 0 -14 3 -26 8 -27 4 0 15 -2 25 -4 9
-2 17 1 17 6 0 6 -8 9 -18 7 -11 -2 -17 4 -18 17 -3 49 -5 55 -29 61 -29 7
-33 24 -6 24 24 0 62 -46 55 -65 -4 -10 1 -12 18 -8 13 3 20 2 15 -2 -4 -5 0
-16 9 -26 14 -16 13 -18 -8 -34 l-23 -16 30 3 c26 3 29 7 27 28 -2 14 -9 31
-14 38 -17 20 -2 25 31 11 23 -10 27 -16 19 -26 -8 -10 -5 -13 10 -13 25 0 27
4 36 51 6 34 5 37 -21 42 -17 3 -34 0 -44 -9 -9 -8 -23 -12 -32 -9 -8 4 -18 2
-22 -4 -9 -16 -25 -14 -25 3 0 14 51 40 79 39 9 0 22 4 28 9 9 7 15 5 19 -6 8
-20 24 -21 24 -1 0 8 -7 15 -15 15 -8 0 -15 7 -15 15 0 20 -10 19 -27 -2 -14
-17 -14 -17 -9 0 3 11 0 17 -9 17 -8 0 -15 -6 -15 -12 -1 -14 -65 -50 -74 -41
-8 8 20 33 38 33 10 0 13 6 10 15 -5 12 4 15 50 15 31 0 56 -4 56 -10 0 -5 5
-10 11 -10 8 0 10 12 6 34 -5 29 -2 35 17 40 29 7 66 -3 66 -19 0 -7 -4 -15
-9 -17 -5 -1 -3 -12 5 -22 13 -19 14 -17 14 17 0 28 3 35 15 31 9 -4 15 0 15
10 0 9 -8 16 -17 16 -15 1 -14 3 4 13 18 10 20 15 11 31 -8 15 -8 21 0 24 7 2
12 19 12 38 0 21 4 33 10 29 6 -3 10 -17 10 -31 0 -17 4 -23 12 -18 8 5 9 2 5
-9 -4 -11 -1 -17 9 -17 8 0 14 6 13 13 -1 6 0 21 1 32 1 14 5 11 11 -12 11
-39 32 -45 25 -8 -3 14 0 25 5 25 5 0 9 7 9 15 0 8 -7 15 -16 15 -8 0 -12 5
-9 10 11 18 35 -9 35 -39 0 -30 16 -59 26 -48 4 4 13 2 21 -5 19 -15 23 -8 15
31 -5 22 -14 35 -26 37 -26 4 -32 13 -17 27 10 9 15 9 24 -4 14 -18 77 -34 77
-19 0 6 -6 10 -14 10 -8 0 -22 10 -30 21 -12 18 -22 21 -50 16 -47 -8 -47 10
0 19 24 4 39 3 43 -5 6 -8 15 -9 34 -2 23 9 25 15 22 51 -3 30 0 40 11 40 8 0
14 5 14 11 0 6 7 9 15 5 9 -3 15 0 15 9 0 18 46 20 53 3 2 -7 8 -10 12 -6 4 4
1 16 -7 27 -8 12 -18 18 -21 14 -4 -3 -7 -3 -7 1 0 4 7 14 15 22 10 11 15 12
15 3 0 -6 8 -18 18 -25 20 -16 52 -18 52 -4 0 6 -6 10 -13 10 -7 0 -19 9 -27
20 -8 11 -21 20 -30 20 -12 1 -12 2 2 11 9 5 15 16 12 24 -5 11 2 14 25 12 17
-1 31 -7 31 -14 0 -7 -6 -10 -14 -7 -28 11 -26 -15 3 -42 17 -15 28 -31 25
-36 -3 -4 19 -8 48 -8 29 0 64 -3 78 -6 19 -5 22 -4 14 5 -6 7 -33 13 -61 15
-54 4 -93 23 -93 45 0 12 3 12 12 3 7 -7 24 -12 39 -12 15 0 30 -6 33 -12 3
-7 4 -4 3 7 -3 25 -15 35 -44 35 -13 0 -23 5 -23 10 0 6 12 10 26 10 20 0 24
4 19 19 -8 26 19 45 54 38 25 -5 30 -3 34 16 3 15 5 12 6 -10 1 -23 6 -33 17
-33 12 0 15 7 11 26 -4 21 0 26 25 31 20 4 27 10 24 20 -3 8 -1 11 4 8 6 -3
10 1 10 9 0 9 5 16 10 16 6 0 10 -7 10 -15 0 -8 5 -15 10 -15 6 0 10 9 10 20
0 11 6 20 14 20 9 0 12 -8 8 -25 -2 -14 -8 -25 -13 -25 -5 0 -9 -7 -9 -15 0
-27 18 -16 25 16 7 30 33 36 27 5 -2 -9 4 -16 13 -16 10 0 15 7 13 18 -4 23
26 22 30 -1 2 -10 -5 -25 -15 -32 -10 -7 -14 -17 -10 -22 5 -4 17 3 27 17 14
18 16 30 9 48 -9 22 -8 24 7 11 14 -11 18 -10 31 6 14 19 15 19 8 -5 -4 -14
-14 -32 -21 -41 -8 -8 -14 -21 -14 -27 0 -7 -5 -12 -11 -12 -5 0 -7 -5 -3 -12
5 -7 2 -9 -9 -5 -11 4 -18 -3 -26 -24 -6 -19 -15 -27 -24 -23 -8 3 -18 1 -22
-5 -7 -12 8 -14 41 -5 15 4 20 11 17 25 -3 10 -1 19 5 19 6 0 12 -8 14 -17 2
-12 10 -3 25 27 20 41 23 43 29 23 7 -26 17 -29 33 -9 7 9 8 17 2 20 -5 3 -12
0 -14 -6 -3 -7 -6 6 -6 30 -1 23 4 42 9 42 6 0 10 -5 10 -11 0 -6 9 -8 21 -4
15 5 19 4 15 -4 -4 -6 -14 -11 -22 -11 -9 0 -14 -6 -11 -12 2 -7 16 -12 31
-11 14 1 26 -2 26 -8 0 -5 -7 -9 -15 -9 -11 0 -14 -7 -9 -25 4 -15 2 -25 -5
-25 -6 0 -11 7 -11 17 0 26 -15 4 -15 -23 -1 -27 11 -30 38 -9 13 9 17 20 12
36 -6 17 -4 21 8 16 21 -8 29 3 15 20 -15 18 -4 26 37 27 22 1 35 6 35 14 0 7
-4 11 -9 7 -5 -3 -12 -1 -16 5 -3 5 1 10 9 10 9 0 16 4 16 10 0 5 7 7 16 3 11
-4 15 -2 13 6 -3 7 -8 12 -13 11 -5 -1 -12 2 -15 8 -3 5 -15 14 -26 20 -20 11
-20 11 2 12 15 0 20 5 16 18 -5 21 31 66 48 60 8 -3 2 -14 -15 -30 -17 -15
-24 -28 -17 -32 5 -4 8 -13 4 -21 -3 -10 1 -15 12 -15 13 0 16 -7 13 -30 -3
-16 -1 -30 4 -30 4 0 8 4 8 9 0 6 14 11 32 13 17 2 34 10 36 18 5 13 3 13 -11
1 -15 -12 -17 -11 -17 8 0 17 -4 21 -19 16 -28 -9 -31 5 -10 45 11 19 19 30
19 23 0 -7 18 -10 49 -10 27 1 44 5 38 9 -9 5 -9 15 0 38 6 16 7 30 2 30 -5 0
-9 4 -9 9 0 5 10 7 21 4 15 -4 20 -2 17 7 -5 16 -104 25 -113 10 -4 -6 9 -10
29 -10 20 0 36 -4 36 -10 0 -13 -36 -13 -61 0 -10 6 -19 17 -19 25 0 8 -7 15
-16 15 -8 0 -12 5 -8 11 4 8 9 8 17 0 15 -15 44 -14 49 1 3 9 9 8 22 -5 19
-18 41 -24 31 -7 -3 6 3 10 15 10 12 0 18 -4 15 -10 -3 -5 1 -10 9 -10 20 0
20 5 0 25 -20 20 -13 29 15 20 15 -4 21 -15 21 -35 0 -22 -4 -28 -15 -24 -8 4
-15 1 -15 -5 0 -16 25 -13 40 4 17 20 27 19 35 -4 5 -18 12 -19 58 -14 29 3
54 8 57 10 12 10 -28 22 -58 17 -36 -7 -61 8 -58 34 2 9 10 18 19 20 12 3 17
-4 17 -23 0 -16 4 -24 11 -20 6 4 8 13 5 21 -7 19 3 44 19 44 17 0 14 32 -5
47 -13 11 -12 12 8 13 16 0 26 -7 29 -20 3 -11 12 -20 21 -20 13 0 12 -3 -4
-14 -11 -8 -15 -18 -10 -23 5 -4 11 -2 13 5 5 14 33 17 33 3 0 -5 -6 -11 -13
-14 -9 -3 -9 -7 0 -17 9 -10 8 -19 -5 -39 -9 -14 -21 -29 -26 -32 -10 -8 1
-29 15 -29 5 0 9 7 9 15 0 9 7 18 15 21 10 4 13 13 9 26 -4 15 -2 19 13 16 10
-2 24 -11 31 -20 14 -19 42 -24 42 -8 0 6 -7 10 -15 10 -9 0 -15 6 -14 13 4
29 -1 41 -12 30 -12 -12 -52 -5 -44 8 3 4 13 5 23 2 13 -4 13 -2 -3 10 -20 16
-20 16 1 17 26 0 51 -19 57 -45 3 -11 5 -1 6 23 1 53 21 56 21 2 0 -36 3 -40
25 -40 14 0 25 -5 25 -11 0 -7 10 -9 25 -5 14 4 25 2 25 -4 0 -5 -9 -10 -19
-10 -11 0 -23 -4 -26 -10 -9 -15 47 -12 68 4 18 14 23 46 7 46 -5 0 -10 5 -10
10 0 6 9 10 20 10 11 0 20 5 20 10 0 6 -12 10 -27 10 -25 1 -26 2 -10 11 10 6
25 8 33 5 9 -3 14 1 14 13 0 11 6 22 13 24 9 4 8 8 -3 16 -13 10 -13 12 0 20
18 12 31 5 23 -14 -3 -10 1 -15 15 -15 12 0 24 -5 27 -10 4 -6 15 0 27 15 23
30 58 51 58 35 0 -5 -7 -10 -17 -10 -14 0 -14 -2 2 -20 10 -11 13 -20 7 -20
-7 0 -12 -4 -12 -10 0 -5 8 -10 18 -10 20 0 26 30 8 42 -7 5 -5 8 5 8 9 0 19
6 22 14 6 15 47 29 47 16 0 -5 -11 -17 -25 -28 -21 -17 -23 -22 -11 -32 12 -9
17 -7 26 9 8 17 17 20 38 15 15 -4 32 -11 38 -15 6 -5 14 -6 17 -2 4 3 7 -1 7
-9 0 -10 13 -18 35 -22 30 -6 35 -11 34 -34 -1 -17 -3 -20 -6 -9 -2 9 -9 17
-14 17 -6 0 -9 -8 -7 -17 4 -27 89 -46 110 -25 5 5 -1 8 -14 8 -16 -1 -22 4
-19 14 2 8 3 25 3 38 0 12 4 22 9 22 5 0 9 -7 9 -15 0 -8 5 -15 10 -15 6 0 10
9 10 19 0 20 17 37 27 27 3 -3 2 -13 -1 -23 -4 -10 -7 -20 -7 -23 0 -3 -10 -9
-22 -14 l-22 -9 22 -4 c15 -3 20 -9 16 -20 -4 -11 -2 -14 5 -9 7 4 12 17 12
30 0 49 112 97 126 54 3 -10 12 -18 21 -18 10 0 13 6 9 16 -3 9 -6 20 -6 25 0
5 -7 9 -15 9 -8 0 -15 5 -15 10 0 6 7 10 15 10 8 0 15 -4 15 -9 0 -4 20 -11
45 -14 46 -5 63 -12 53 -23 -3 -3 -15 0 -27 8 -16 10 -23 10 -32 1 -15 -15 4
-43 28 -43 10 0 13 -6 9 -15 -4 -11 3 -19 19 -25 19 -7 25 -17 27 -42 0 -18 1
-40 2 -48 1 -20 35 -25 42 -6 7 18 34 22 34 4 0 -12 15 -2 15 10 0 4 4 13 8
20 5 7 4 12 -2 12 -6 0 -11 -3 -11 -7 0 -5 -18 -8 -40 -8 l-40 0 0 47 c0 30
-4 47 -11 45 -6 -1 -14 4 -16 11 -3 6 1 12 7 12 17 0 37 -23 33 -37 -5 -15 38
-27 66 -18 27 8 69 -4 51 -15 -8 -5 -8 -10 -2 -14 6 -3 15 8 21 25 13 37 1 65
-32 80 -19 8 -17 9 10 5 19 -3 34 0 37 7 4 7 4 -3 1 -20 -3 -25 -1 -33 10 -33
8 0 15 5 15 10 0 6 8 5 20 -2 22 -14 39 -3 22 14 -7 7 -12 21 -12 32 0 17 2
18 10 6 9 -13 11 -13 20 0 14 21 12 36 -5 50 -8 7 -15 8 -15 3 0 -11 -36 -11
-46 0 -4 4 3 7 15 7 14 0 21 5 19 13 -3 6 -11 12 -19 12 -18 0 -39 20 -39 37
1 8 6 6 15 -6 8 -11 21 -16 30 -13 8 4 15 2 15 -2 0 -5 13 -23 29 -40 27 -29
33 -71 10 -71 -5 0 -9 -4 -9 -10 0 -21 30 -9 43 18 7 15 19 26 26 24 8 -2 11
3 9 10 -4 8 4 14 20 15 16 1 20 -2 12 -7 -16 -10 -4 -30 17 -30 10 0 13 6 8
18 -4 12 -3 14 5 6 8 -8 8 -19 0 -38 -6 -17 -6 -25 0 -21 6 3 10 -3 10 -14 0
-12 5 -21 10 -21 13 0 13 3 -2 34 -9 21 -8 29 5 44 10 10 17 27 16 38 0 10 -3
13 -6 7 -6 -17 -23 -16 -23 1 0 7 -11 25 -25 40 -27 29 -35 58 -9 32 19 -19
31 -20 37 -3 3 9 9 9 26 -1 12 -7 26 -10 31 -7 5 3 11 1 15 -5 3 -5 18 -7 32
-4 18 5 24 3 19 -5 -4 -6 -22 -11 -41 -11 -30 0 -54 -14 -43 -25 2 -2 30 2 61
9 l57 13 0 -28 c0 -32 3 -34 31 -19 13 7 25 7 38 1 13 -8 23 -6 37 5 18 14 18
15 -3 9 -29 -8 -30 6 -2 23 18 11 24 11 39 -3 15 -14 17 -21 7 -36 -6 -10 -18
-18 -26 -16 -8 1 -16 -3 -18 -10 -9 -25 50 -6 64 20 13 25 17 27 82 25 62 -2
68 -4 64 -23 -3 -15 -1 -15 7 4 6 13 8 26 5 29 -7 7 44 32 66 32 11 0 19 5 19
10 0 6 -11 10 -25 10 -18 0 -25 5 -25 20 0 18 -20 26 -52 21 -5 0 -8 5 -8 13
0 11 38 16 48 6 1 -1 8 -3 15 -4 6 -1 11 -12 10 -24 -2 -12 2 -22 7 -22 6 0
10 15 11 33 0 17 5 41 10 52 6 14 7 3 3 -32 -5 -43 -3 -53 9 -53 9 0 18 -6 21
-12 5 -10 7 -10 12 0 3 6 10 12 15 12 6 0 7 -5 4 -10 -8 -12 23 -45 33 -36 3
4 1 11 -6 15 -7 4 -10 15 -7 23 4 9 -1 28 -10 41 -9 15 -12 28 -6 31 5 3 12 0
14 -6 3 -7 6 5 6 26 1 54 9 41 15 -23 6 -63 16 -80 16 -26 0 21 3 35 7 31 4
-4 8 -15 8 -24 0 -9 7 -17 15 -17 10 0 14 -8 12 -23 -2 -12 1 -22 7 -22 14 0
25 46 16 67 -13 33 -17 106 -6 98 6 -3 11 -22 11 -42 0 -32 2 -35 24 -29 19 5
26 1 36 -23 6 -17 9 -35 5 -40 -3 -6 -3 -11 2 -11 4 -1 31 -2 58 -4 28 -2 42
-2 33 1 -22 6 -24 23 -2 23 8 0 13 4 10 8 -3 5 4 16 14 25 13 11 21 13 26 5 4
-6 -1 -15 -10 -20 -9 -5 -16 -17 -16 -26 1 -14 4 -13 19 6 29 33 54 29 49 -8
-3 -16 0 -30 5 -30 5 0 7 -7 4 -14 -4 -11 -1 -13 11 -9 14 6 15 4 4 -9 -9 -12
-10 -18 -2 -23 6 -4 9 -13 6 -21 -3 -8 -1 -14 4 -14 6 0 10 4 10 9 0 5 3 17 7
27 5 13 3 15 -7 9 -7 -4 -2 7 11 25 21 28 24 30 27 12 2 -11 10 -26 19 -34 14
-11 16 -10 10 14 -10 39 0 56 29 50 19 -3 23 -1 18 12 -8 20 5 20 30 1 19 -15
19 -15 -3 -15 -20 0 -22 -2 -11 -15 11 -13 15 -13 21 -3 5 7 9 10 9 6 0 -4 -9
-22 -20 -40 l-20 -33 2 34 c2 20 -2 36 -10 38 -7 3 -11 -3 -10 -14 3 -36 -2
-53 -17 -53 -20 0 -32 -26 -27 -61 3 -22 10 -29 26 -29 19 1 19 2 4 11 -12 6
-18 22 -17 42 0 24 2 27 8 14 6 -17 8 -17 20 -3 17 21 29 20 27 -1 0 -10 8
-19 19 -21 17 -4 18 -3 5 13 -11 13 -12 19 -4 22 7 2 10 12 7 22 -3 10 0 22 5
25 7 4 10 -7 9 -30 -1 -21 3 -39 10 -41 7 -3 10 8 8 32 -4 38 11 85 27 85 5 0
6 -5 2 -11 -4 -6 -10 -27 -14 -45 -7 -31 -6 -34 16 -34 14 0 27 7 30 15 4 8
13 15 22 15 13 0 12 -3 -3 -14 -17 -12 -18 -16 -5 -32 14 -16 13 -17 -2 -11
-12 4 -18 2 -18 -7 0 -7 12 -13 30 -13 19 0 30 5 30 15 0 8 6 12 15 8 10 -3
15 1 15 12 0 15 2 15 10 2 5 -8 10 -30 10 -47 0 -18 3 -33 8 -33 4 0 7 22 7
49 0 27 3 52 6 55 11 12 35 -5 47 -32 l12 -27 -5 32 c-2 18 0 35 5 38 6 4 10
-16 11 -47 1 -54 3 -52 14 15 6 35 9 38 31 33 13 -4 24 -2 24 3 0 11 -25 21
-53 21 -17 0 -19 2 -7 9 8 6 18 7 22 5 4 -3 8 -1 8 5 0 5 -3 11 -7 14 -5 2 -2
2 4 1 7 -2 17 5 22 14 6 9 11 12 11 5 0 -6 8 -14 17 -16 10 -2 8 -3 -4 -2 -29
3 -29 -8 -2 -45 18 -24 27 -28 50 -23 18 3 29 1 29 -6 0 -6 -10 -11 -21 -11
-25 0 -59 -35 -58 -59 0 -11 3 -8 9 6 5 12 22 25 37 29 39 9 52 22 46 44 -3
11 0 20 6 20 5 0 8 6 5 14 -3 7 2 16 12 20 13 5 15 2 9 -11 -5 -10 -10 -33
-13 -51 -2 -19 -11 -36 -18 -39 -22 -8 -16 -22 6 -16 13 3 20 14 20 29 0 28
46 46 61 23 8 -13 13 -6 10 13 0 4 6 5 15 1 8 -3 13 -12 10 -19 -3 -9 2 -14
14 -14 31 0 24 33 -10 52 -17 9 -30 13 -30 9 0 -5 -13 -11 -30 -13 -20 -3 -30
0 -30 9 0 7 9 13 20 13 21 0 28 19 8 21 -7 1 -2 4 12 8 19 6 27 3 32 -11 5
-12 18 -18 37 -18 28 0 30 2 26 34 -3 19 0 38 5 41 6 4 10 -6 11 -22 0 -23 2
-25 8 -9 7 18 8 18 14 3 4 -10 10 -17 14 -16 4 1 18 1 31 0 37 -2 25 -17 -13
-16 -20 1 -38 -2 -41 -7 -3 -4 9 -8 25 -8 17 0 31 -5 31 -11 0 -8 -15 -10 -46
-5 -28 3 -43 2 -39 -4 3 -6 13 -10 20 -10 11 0 13 -8 9 -30 -4 -19 -2 -30 5
-30 6 0 11 11 11 25 0 16 6 25 16 25 13 0 15 -7 10 -37 l-7 -38 15 28 c8 15
12 35 9 43 -5 14 -3 15 15 5 27 -14 30 -14 34 5 2 12 15 17 51 18 26 0 49 -3
51 -9 2 -5 13 1 24 15 12 14 21 20 22 14 0 -5 -6 -16 -12 -23 -11 -10 -10 -15
4 -25 9 -7 15 -21 14 -32 -4 -25 -21 -25 -21 1 0 13 -8 21 -21 23 -18 3 -21
-2 -20 -27 1 -28 16 -34 16 -6 0 8 4 17 10 20 6 4 8 -5 4 -22 -5 -24 -2 -29
15 -29 12 0 21 6 21 12 0 7 4 14 9 16 5 2 12 19 16 38 7 31 6 33 -9 21 -9 -8
-20 -10 -24 -6 -4 4 -1 10 6 12 6 3 12 11 12 19 0 8 6 11 16 7 14 -5 16 -2 10
20 -3 15 -1 29 5 33 9 5 11 -4 7 -34 -4 -23 -1 -45 5 -51 15 -15 27 -14 27 4
0 21 13 19 30 -5 8 -11 25 -20 39 -20 13 0 21 -3 17 -7 -4 -4 -13 -8 -19 -8
-7 0 -13 -4 -14 -10 -1 -5 5 -9 13 -7 10 2 14 -6 14 -27 0 -22 -4 -28 -17 -26
-10 1 -12 0 -5 -2 6 -3 12 -10 12 -16 0 -27 19 12 24 48 2 22 5 42 5 44 1 3 5
1 11 -5 5 -5 6 -24 1 -46 -9 -39 1 -60 25 -51 9 3 14 -2 14 -15 0 -11 -6 -23
-13 -25 -7 -4 -8 -6 -1 -6 15 -1 31 19 36 44 2 15 -3 19 -21 20 -13 0 -26 6
-28 13 -3 6 1 12 7 12 10 0 10 4 0 15 -10 12 -10 15 3 15 9 0 18 -4 21 -9 3
-5 15 -7 26 -4 19 5 20 6 3 20 -17 14 -17 14 4 10 19 -4 22 -1 19 16 -3 12 -5
25 -5 30 -1 4 -12 7 -26 7 -14 0 -25 5 -25 10 0 6 11 10 24 10 13 0 26 7 30
15 3 8 11 15 18 15 9 0 9 -3 0 -12 -14 -14 -16 -54 -2 -63 5 -3 7 -12 3 -20
-3 -8 0 -15 6 -15 6 0 11 9 11 20 0 11 -4 20 -9 20 -5 0 -8 11 -7 25 1 32 16
33 16 1 0 -14 5 -28 10 -31 6 -3 10 -15 10 -25 0 -13 9 -22 25 -26 14 -3 25
-11 25 -16 0 -6 -11 -7 -27 -3 -16 4 -32 8 -38 9 -5 1 -16 5 -22 9 -8 5 -13 4
-13 -2 0 -6 6 -11 13 -11 8 0 7 -4 -3 -10 -10 -6 -3 -8 23 -3 22 3 37 2 37 -5
0 -6 13 -6 39 2 46 13 63 26 26 19 -15 -3 -25 -1 -25 6 0 6 9 11 20 11 11 0
20 5 20 11 0 5 4 7 10 4 6 -3 10 -15 10 -26 0 -10 5 -19 10 -19 15 0 12 33 -4
55 -11 15 -17 17 -28 7 -12 -9 -15 -9 -15 3 0 8 4 15 9 15 5 0 6 5 3 11 -4 5
1 19 11 31 23 24 74 52 74 39 0 -5 -9 -11 -20 -14 -11 -3 -20 -12 -20 -21 0
-23 37 -20 43 4 4 17 13 20 59 20 56 0 64 -3 87 -33 13 -17 12 -18 -12 -12
-17 5 -27 3 -27 -4 0 -6 5 -11 11 -11 6 0 8 -7 5 -16 -4 -9 -2 -22 4 -29 9
-10 3 -12 -25 -10 -19 2 -35 -1 -35 -6 0 -5 9 -9 20 -9 11 0 20 -4 20 -9 0 -5
-10 -7 -22 -3 -14 3 -19 2 -14 -6 9 -15 53 -16 61 -2 11 18 24 10 28 -17 2
-16 3 -6 2 21 -1 28 -8 52 -16 57 -10 6 -8 9 9 9 13 0 22 -6 22 -16 0 -8 4
-12 10 -9 6 3 10 15 10 26 0 10 4 19 9 19 5 0 7 -18 5 -40 -2 -22 1 -40 6 -40
6 0 10 12 10 26 0 24 1 24 17 9 13 -14 14 -18 2 -25 -7 -5 -10 -12 -6 -16 3
-4 13 -1 21 5 8 7 24 10 36 6 14 -5 20 -2 20 9 0 9 7 16 16 16 14 0 14 -3 4
-15 -11 -13 -8 -14 21 -9 41 8 40 7 42 33 1 13 8 21 20 21 10 0 15 -4 12 -10
-3 -5 1 -10 9 -10 23 0 20 13 -10 39 -20 17 -28 20 -34 11 -5 -8 -15 -10 -26
-5 -16 6 -14 9 13 16 18 5 35 14 39 21 5 7 0 9 -14 6 -12 -4 -24 -2 -27 2 -3
5 17 8 44 8 48 -1 50 -3 53 -31 3 -31 28 -51 28 -23 0 9 -4 16 -10 16 -5 0
-10 7 -10 15 0 8 5 15 10 15 6 0 10 -6 10 -14 0 -8 7 -16 15 -20 18 -6 20 -33
3 -38 -7 -3 -9 -12 -5 -22 5 -13 11 -15 26 -6 11 5 27 7 36 4 11 -5 18 0 22
14 4 17 29 31 56 32 12 0 8 -18 -5 -23 -7 -2 1 -2 17 0 l30 4 -25 -15 c-14 -9
-32 -15 -41 -16 -21 0 -33 -28 -19 -45 5 -6 6 -15 2 -19 -4 -4 8 0 25 11 31
17 32 18 10 24 l-22 5 24 13 c14 8 37 10 57 6 28 -5 33 -3 28 10 -7 18 16 21
34 3 6 -6 15 -8 19 -4 4 4 1 11 -7 17 -13 8 -13 10 0 20 11 8 12 12 3 16 -19
7 -16 50 5 58 14 5 15 4 5 -6 -20 -20 -16 -27 12 -21 18 3 25 0 25 -12 0 -9
-7 -16 -15 -16 -9 0 -15 -9 -15 -25 0 -16 6 -25 15 -25 8 0 15 9 15 21 0 12 4
17 11 13 6 -3 8 -17 5 -30 -6 -21 -3 -24 19 -24 14 0 25 -4 25 -10 0 -5 5 -10
10 -10 6 0 10 12 10 26 0 21 -4 24 -20 19 -16 -5 -20 -2 -20 16 0 16 3 19 13
11 6 -6 16 -10 21 -9 5 1 14 -11 19 -26 12 -36 -6 -59 -40 -52 -19 3 -22 1
-14 -9 6 -8 9 -22 5 -32 -5 -17 -4 -17 11 1 9 11 20 20 26 20 5 0 14 7 19 15
8 13 10 13 10 -2 0 -9 -4 -19 -10 -23 -5 -3 -7 -11 -5 -18 3 -7 0 -19 -5 -27
-8 -13 -11 -13 -19 -1 -5 7 -14 10 -21 6 -9 -6 -9 -9 1 -16 42 -26 68 5 63 76
-3 54 -2 55 19 43 14 -7 17 -13 9 -16 -17 -5 -15 -22 2 -22 20 0 12 -34 -13
-59 -12 -12 -21 -28 -21 -37 0 -12 5 -11 19 7 17 21 22 22 40 12 27 -17 31
-16 31 2 0 8 -8 15 -17 15 -15 0 -16 2 -3 10 12 8 13 12 1 19 -11 7 -10 12 5
29 l17 21 30 -25 c36 -30 58 -31 54 -2 -1 15 4 23 18 26 42 7 49 12 37 24 -17
17 -15 31 3 24 8 -3 15 -1 15 4 0 6 -7 10 -15 10 -8 0 -15 5 -15 10 0 6 7 10
16 10 11 0 15 6 11 20 -3 11 -1 17 4 14 5 -3 8 -25 6 -49 -2 -32 0 -42 10 -38
16 6 16 2 3 -31 -9 -24 -7 -26 16 -26 14 0 22 -4 19 -10 -3 -5 1 -10 9 -10 19
0 20 11 4 29 -10 11 -10 14 -1 18 7 3 13 12 13 21 0 15 -2 15 -10 2 -8 -13
-11 -12 -24 5 -18 24 -27 54 -18 58 4 2 18 1 32 -4 l25 -7 -24 -1 c-20 -1 -22
-3 -11 -16 7 -9 19 -14 26 -11 18 7 39 -21 27 -36 -15 -19 -12 -47 4 -41 7 3
13 -2 13 -10 0 -8 -6 -17 -12 -20 -7 -2 -9 -8 -5 -13 4 -5 12 -2 17 6 5 8 12
12 15 9 9 -10 -6 -39 -21 -39 -8 0 -11 -6 -8 -15 4 -9 0 -15 -10 -15 -9 0 -16
-8 -16 -17 0 -13 3 -14 12 -5 18 18 31 14 25 -8 -3 -13 0 -20 9 -20 8 0 14 7
14 15 0 18 16 20 23 3 3 -8 6 -5 6 5 1 10 5 15 11 12 6 -3 10 1 10 9 0 26 15
18 18 -8 1 -16 -4 -26 -16 -29 -16 -4 -16 -5 1 -6 9 0 17 -7 18 -13 1 -7 4 -2
9 12 7 24 7 24 18 -10 6 -20 11 -27 12 -17 2 9 3 23 4 30 1 6 -5 17 -14 24 -8
6 -12 15 -7 19 4 4 7 2 7 -4 0 -7 12 -12 26 -12 14 0 23 -4 19 -10 -3 -5 3
-10 14 -10 14 0 21 -6 21 -20 0 -11 5 -20 10 -20 6 0 10 9 10 20 0 11 -4 20
-10 20 -5 0 -10 14 -10 30 0 34 -7 38 -26 13 -15 -20 -19 -6 -4 17 7 12 13 12
32 1 35 -18 82 1 73 30 -5 15 -4 19 4 15 20 -13 7 -60 -19 -66 l-23 -6 26 -17
c27 -18 72 -24 63 -8 -3 5 -15 7 -26 4 -11 -3 -20 0 -20 6 0 6 16 11 35 11 38
0 40 -2 25 -31 -8 -15 -7 -19 5 -19 8 0 15 9 15 19 0 10 7 22 16 25 26 10 28
7 10 -13 -19 -21 -18 -62 1 -68 7 -3 13 9 15 28 2 18 9 35 17 37 10 3 12 -2 7
-21 -3 -14 -2 -29 4 -32 11 -7 13 5 10 45 -1 14 -7 28 -14 32 -8 6 -7 8 3 8 8
0 11 6 7 16 -3 8 -2 12 4 9 6 -3 10 -24 10 -46 0 -38 12 -52 24 -26 3 6 3 1 0
-12 -4 -15 -2 -21 4 -17 6 3 13 28 17 54 3 26 11 54 16 62 7 10 8 0 3 -32 -7
-54 1 -88 22 -88 20 0 18 18 -3 23 -14 4 -12 5 5 6 16 1 22 -5 22 -19 0 -11
-7 -20 -15 -20 -8 0 -15 -6 -15 -14 0 -8 -6 -17 -13 -20 -6 -3 7 -4 31 -2 26
3 45 0 50 -8 4 -8 16 -10 32 -5 l25 7 -27 1 c-19 1 -28 6 -28 17 0 14 2 15 17
3 15 -12 16 -12 9 6 -5 11 -10 28 -13 37 -3 9 -15 19 -27 21 -14 3 -11 5 11 6
28 1 60 21 33 21 -6 0 -15 10 -20 23 -9 22 -9 22 -9 1 -1 -14 -9 -23 -23 -27
-13 -2 -31 -8 -40 -12 -14 -6 -18 -2 -18 18 0 14 7 28 16 31 8 3 12 10 9 16
-3 6 4 10 17 10 36 0 68 -11 68 -24 0 -6 11 -22 25 -34 21 -20 26 -22 31 -8 3
8 0 31 -6 51 -7 20 -9 47 -6 60 4 17 1 25 -11 28 -13 4 -12 5 5 6 26 1 42 -27
22 -39 -10 -6 -10 -16 3 -48 12 -30 14 -48 7 -74 -13 -44 -13 -48 5 -48 8 0
15 5 15 10 0 6 -5 10 -12 10 -9 0 -9 3 0 12 7 7 12 26 13 43 l1 30 10 -35 c5
-19 9 -43 9 -52 0 -10 4 -20 10 -23 5 -4 9 1 9 11 0 14 7 16 40 11 22 -3 40
-1 40 4 0 9 -36 13 -74 9 -17 -1 -18 4 -14 49 3 31 1 51 -5 51 -6 0 -8 2 -5 5
3 3 12 3 21 -1 13 -4 14 -10 5 -29 -6 -13 -8 -31 -4 -40 5 -14 8 -14 32 2 27
17 27 17 20 -7 l-7 -25 23 26 c26 30 92 53 68 24 -7 -8 -9 -19 -5 -23 4 -4 10
-1 12 6 8 22 23 12 23 -15 0 -21 -3 -24 -10 -13 -5 8 -12 11 -16 7 -4 -4 -15
0 -25 9 -10 9 -23 13 -28 9 -15 -9 -14 -28 2 -22 15 5 47 -10 47 -24 0 -5 -11
-7 -26 -3 -24 6 -25 5 -13 -15 8 -11 21 -20 29 -18 11 1 14 -5 12 -23 -2 -22
-1 -23 9 -7 6 10 8 29 5 43 -6 21 -3 24 20 24 22 0 25 3 20 23 -8 32 17 67 35
50 11 -11 10 -13 -4 -13 -9 0 -17 -5 -17 -11 0 -8 12 -10 35 -6 26 4 35 2 35
-9 0 -8 -5 -14 -12 -14 -6 0 -9 -3 -6 -6 3 -3 14 0 25 6 13 8 26 9 46 1 24 -9
27 -16 27 -56 0 -26 5 -45 11 -45 7 0 9 10 5 25 -6 25 2 30 52 28 6 -1 12 5
12 12 0 8 8 11 20 8 22 -6 28 -47 8 -59 -7 -4 -8 -3 -4 4 4 7 4 17 1 23 -4 6
-13 -1 -21 -16 -18 -34 -18 -38 1 -31 9 3 15 0 15 -10 0 -9 -9 -18 -20 -21
-16 -4 -18 -8 -9 -19 7 -9 7 -14 1 -14 -5 0 -12 -9 -15 -20 -6 -24 18 -28 27
-4 3 8 11 12 17 9 6 -4 8 -13 5 -20 -3 -8 6 -18 22 -24 l27 -11 -30 5 c-16 2
-45 7 -64 11 -23 5 -32 3 -27 -4 3 -6 2 -13 -4 -17 -5 -3 -10 -2 -10 4 0 5 -3
16 -6 25 -4 11 -1 16 10 16 9 0 16 4 16 8 0 4 -9 8 -21 8 -19 0 -21 -5 -16
-42 4 -40 -6 -64 -26 -64 -5 0 -7 14 -5 30 3 17 1 30 -4 30 -5 0 -8 -15 -6
-32 2 -25 8 -34 25 -36 24 -4 49 -29 39 -39 -4 -4 -11 -1 -16 7 -14 23 -20 7
-7 -20 14 -27 44 -42 34 -16 -7 18 4 21 20 5 7 -7 13 -7 17 0 4 5 -3 15 -14
21 -11 6 -20 17 -20 25 0 8 -4 15 -10 15 -5 0 -10 7 -10 15 0 8 5 15 10 15 6
0 10 7 10 15 0 9 9 15 23 15 14 0 24 -6 24 -15 0 -8 -9 -15 -21 -15 -18 -1
-19 -2 -4 -10 10 -7 14 -17 10 -32 -4 -18 -2 -20 19 -14 13 4 31 8 39 10 8 2
14 11 14 19 -1 9 9 28 22 42 13 14 24 28 24 31 0 2 -16 4 -35 4 -19 0 -35 5
-35 11 0 8 12 10 35 6 19 -3 35 -2 35 4 0 5 -9 9 -20 9 -11 0 -20 5 -20 11 0
6 9 9 20 6 15 -4 20 0 20 15 0 17 -3 18 -15 8 -11 -9 -15 -9 -15 -1 0 6 6 14
14 17 10 4 14 32 15 113 2 107 1 109 -22 115 -20 5 -23 11 -19 31 5 30 22 34
22 5 0 -11 5 -20 10 -20 15 0 12 47 -2 53 -10 4 -10 6 0 6 7 1 12 16 12 41 0
39 -1 40 -37 41 l-38 2 40 7 40 7 -38 2 c-25 1 -40 -4 -43 -14 -9 -22 -26 -18
-19 4 3 12 0 21 -10 25 -8 3 -15 12 -15 21 0 22 18 19 25 -5 10 -31 25 -24 19
9 -5 24 -2 29 18 34 13 4 31 20 41 37 17 29 17 30 0 30 -17 1 -17 2 -1 13 12
9 16 28 16 70 l-1 57 -38 0 c-28 0 -39 -4 -39 -15 0 -19 -14 -19 -34 0 -18 18
-56 20 -56 3 0 -9 -3 -8 -10 2 -5 8 -13 11 -17 6 -4 -4 0 -14 11 -21 17 -13
17 -15 2 -30 -23 -24 -46 -11 -46 25 l0 30 -720 0 c-678 0 -719 -1 -714 -18 5
-16 5 -16 -6 1 -10 16 -81 17 -1253 17 -954 0 -1246 -3 -1255 -12 -9 -9 -12
-9 -12 0 0 16 -667 17 -686 1 -8 -6 -14 -7 -14 -2 0 6 -74 11 -182 12 -140 2
-183 -1 -189 -11 -7 -10 -9 -10 -9 0 0 7 -14 12 -34 12 -25 0 -35 -5 -39 -20
-3 -11 -11 -20 -18 -20 -10 0 -10 3 -1 12 7 7 12 16 12 20 0 4 -141 8 -314 8
-242 0 -315 -3 -319 -12 -4 -10 -6 -10 -6 0 -1 9 -35 12 -135 12 -98 0 -136
-3 -139 -12 -4 -10 -6 -10 -6 0 -1 9 -27 12 -95 12 -66 0 -96 -4 -99 -12 -4
-10 -6 -10 -6 -1 -1 10 -279 13 -1321 13 l-1320 0 0 -1190z"/>
<path d="M5183 8493 c-3 -7 -3 -20 1 -28 3 -8 1 -15 -4 -15 -6 0 -10 5 -10 10
0 6 -4 10 -10 10 -21 0 -9 -20 15 -26 14 -3 25 -10 25 -14 0 -11 -46 -21 -64
-14 -12 5 -16 -1 -16 -22 -1 -25 -2 -26 -11 -11 -14 23 -29 22 -29 -3 0 -18
-3 -19 -20 -10 -16 9 -19 8 -13 -6 5 -13 2 -15 -16 -9 -16 5 -22 3 -20 -7 4
-22 -12 -48 -30 -48 -9 0 -25 -11 -35 -25 -13 -17 -25 -23 -38 -19 -10 3 -18
2 -17 -3 5 -27 -1 -35 -16 -23 -12 10 -15 10 -15 -3 0 -17 -20 -27 -55 -27
-13 0 -25 -3 -27 -7 -1 -5 -22 -18 -45 -29 -36 -19 -45 -20 -60 -8 -23 17 -34
18 -27 1 2 -7 0 -24 -5 -38 -5 -13 -10 -18 -10 -11 -1 20 -17 14 -31 -12 -7
-14 -24 -28 -39 -31 -14 -4 -20 -10 -13 -12 18 -7 15 -40 -4 -47 -9 -4 -22 -2
-29 4 -8 7 -11 4 -11 -13 1 -16 -4 -21 -19 -19 -15 2 -20 -3 -20 -23 0 -14 3
-25 8 -25 4 0 7 -4 7 -9 0 -5 -10 -7 -22 -3 -17 4 -20 2 -15 -12 4 -10 1 -19
-9 -23 -8 -3 -13 -12 -10 -20 3 -8 -5 -25 -18 -38 -17 -17 -20 -27 -13 -34 8
-8 7 -11 -2 -11 -7 0 -11 -6 -8 -13 3 -7 -4 -19 -14 -26 -11 -6 -19 -17 -18
-24 3 -19 -13 -50 -37 -72 -12 -11 -24 -29 -26 -40 -2 -10 -14 -22 -28 -26
-14 -4 -19 -7 -11 -8 11 -1 11 -4 1 -16 -6 -8 -9 -18 -6 -24 3 -5 2 -20 -3
-33 -6 -12 -10 -17 -10 -10 -1 6 -5 12 -11 12 -5 0 -7 -13 -3 -32 4 -21 3 -29
-4 -25 -7 5 -10 -4 -9 -22 1 -17 -2 -27 -9 -25 -10 4 -35 -40 -35 -64 0 -7 -4
-10 -10 -7 -9 6 -12 2 -14 -27 -1 -7 -13 -26 -28 -43 -16 -16 -28 -38 -28 -47
0 -10 -9 -27 -20 -38 -11 -11 -21 -26 -22 -32 -2 -7 -12 -21 -22 -30 -10 -10
-16 -18 -12 -18 4 0 -4 -11 -18 -24 -15 -13 -26 -28 -26 -35 0 -6 -7 -11 -16
-11 -8 0 -13 -4 -10 -9 11 -18 -13 -61 -34 -61 -11 0 -19 -3 -18 -7 5 -18 -15
-52 -37 -67 -14 -9 -25 -22 -25 -29 0 -7 -6 -19 -12 -25 -7 -7 -13 -16 -14
-20 0 -4 -8 -23 -17 -42 -15 -36 -39 -146 -39 -187 0 -13 -4 -23 -9 -23 -4 0
-11 -10 -15 -22 -8 -29 -41 -61 -56 -56 -16 6 -60 -41 -52 -54 4 -6 2 -8 -4
-4 -6 4 -10 -1 -10 -11 0 -10 0 -22 -2 -28 -1 -5 -2 -25 -1 -42 1 -24 6 -33
19 -33 14 0 15 -2 2 -10 -8 -5 -11 -12 -8 -16 10 -9 -10 -44 -25 -44 -7 0 -20
-8 -28 -17 -9 -10 -37 -37 -62 -61 -26 -24 -47 -47 -47 -52 0 -5 -7 -7 -15 -4
-9 4 -15 0 -15 -8 0 -8 -9 -23 -21 -34 -47 -43 -89 -191 -61 -218 4 -4 7 -11
7 -14 0 -4 14 -32 31 -62 21 -36 32 -70 33 -99 0 -25 7 -49 14 -54 8 -6 8 -10
1 -13 -6 -2 -9 -17 -7 -32 1 -15 5 -52 7 -82 3 -30 8 -68 12 -84 4 -16 2 -31
-4 -35 -6 -3 -13 -35 -16 -71 -4 -35 -14 -76 -24 -90 -35 -52 -40 -79 -41
-215 0 -129 -6 -166 -37 -240 -6 -16 -14 -46 -17 -65 -3 -19 -8 -44 -13 -54
-5 -13 -4 -17 3 -13 6 4 15 -17 23 -53 8 -38 18 -60 26 -60 8 0 14 -4 14 -10
0 -15 33 -50 47 -50 7 0 13 -4 13 -9 0 -9 117 -37 137 -33 7 2 26 -4 42 -13
17 -8 43 -15 59 -15 17 0 32 -6 36 -15 3 -9 18 -15 39 -15 18 0 37 -4 43 -8 5
-5 36 -19 69 -32 33 -13 66 -28 73 -33 6 -5 12 -7 12 -3 0 6 95 -41 115 -56 6
-5 24 -20 40 -33 17 -14 34 -25 38 -25 5 0 5 -4 2 -10 -3 -5 1 -10 9 -10 9 0
16 -4 16 -8 0 -5 21 -31 48 -59 26 -28 48 -57 50 -64 2 -8 7 -16 11 -19 28
-18 35 -62 37 -215 1 -138 -1 -166 -18 -201 -17 -36 -22 -40 -48 -36 -17 2
-36 -1 -44 -7 -7 -6 -31 -12 -54 -14 -22 -1 -38 -5 -35 -9 2 -5 0 -8 -6 -8 -5
0 -12 6 -14 13 -4 9 -7 9 -14 0 -5 -7 -29 -14 -53 -16 -25 -3 -52 -7 -60 -10
-40 -15 -151 -37 -159 -33 -5 3 -15 -1 -22 -10 -7 -8 -26 -15 -43 -14 -17 1
-33 1 -36 0 -3 -1 -23 -4 -45 -6 -47 -5 -123 -12 -145 -13 -13 -1 -13 -2 0
-11 11 -7 8 -9 -15 -9 -40 1 -128 -23 -148 -39 -9 -8 -25 -11 -36 -7 -11 3
-34 -1 -50 -9 -17 -9 -43 -16 -60 -16 -16 0 -36 -6 -43 -13 -7 -8 -21 -15 -31
-16 -9 -1 -26 -2 -37 -3 -13 -2 -18 -8 -15 -16 2 -7 -1 -12 -8 -11 -19 3 -67
-12 -67 -22 0 -5 -9 -9 -20 -9 -13 0 -18 -5 -14 -15 4 -11 -1 -15 -17 -16 -13
0 -18 -3 -11 -6 8 -3 2 -14 -18 -31 -16 -15 -30 -32 -30 -39 0 -7 -9 -17 -20
-23 -11 -6 -20 -17 -20 -24 0 -8 -11 -21 -25 -30 -14 -9 -25 -25 -25 -35 0
-10 -6 -24 -14 -30 -7 -6 -17 -26 -20 -44 -5 -23 -9 -28 -15 -18 -5 8 -11 9
-15 3 -3 -6 -2 -14 4 -17 7 -4 3 -14 -11 -26 -16 -14 -26 -16 -33 -9 -8 8 -6
14 4 20 10 7 11 10 3 10 -15 0 -17 39 -3 74 6 17 6 26 0 26 -6 0 -8 10 -6 22
2 13 -1 29 -6 36 -7 8 -7 12 2 12 10 0 10 3 1 14 -9 11 -9 15 1 19 8 4 7 6 -4
6 -10 1 -18 5 -18 10 0 5 8 12 18 14 14 4 15 5 1 6 -11 1 -19 14 -23 36 -4 19
-13 35 -20 35 -8 0 -16 13 -19 29 -3 16 -13 36 -22 44 -8 9 -15 24 -15 35 0
10 -3 22 -7 25 -3 4 -8 22 -9 39 -7 65 -15 96 -29 108 -7 6 -11 19 -8 27 5 12
2 15 -10 10 -12 -4 -17 -1 -17 11 0 10 -5 23 -12 30 -9 9 -9 12 0 12 7 0 12 6
12 14 0 12 7 12 35 5 19 -6 39 -8 44 -4 5 3 34 6 65 6 31 1 56 6 56 10 0 5 8
9 18 9 9 0 30 7 46 15 15 8 35 15 42 15 8 0 14 7 14 15 0 8 10 19 22 26 23 13
55 44 96 98 15 19 41 49 58 65 38 39 65 82 56 91 -4 4 -7 10 -8 13 -2 18 -19
46 -40 68 -21 20 -23 26 -12 51 6 15 18 35 25 44 18 21 16 74 -2 89 -8 7 -12
16 -10 21 3 4 -3 17 -14 28 -24 24 -25 81 -1 81 8 0 25 12 38 27 22 26 22 29
6 38 -9 5 -27 20 -39 32 -13 12 -25 19 -28 17 -7 -7 -49 15 -59 30 -5 7 -8 7
-8 -2 0 -8 -5 -10 -12 -5 -7 4 -17 8 -23 8 -12 1 -43 17 -100 49 -61 34 -59
46 13 121 36 39 40 64 14 88 -20 18 -42 22 -42 9 0 -5 -13 -7 -30 -4 -32 5
-39 16 -15 26 8 3 20 17 25 31 5 14 15 25 21 25 6 0 24 11 41 25 16 14 27 25
24 25 -3 0 -1 11 4 25 5 14 6 27 0 30 -5 3 -7 16 -4 30 4 20 -1 26 -23 31 -16
3 -35 8 -43 11 -8 4 -18 5 -22 5 -5 -1 -8 2 -8 7 0 15 -30 22 -50 11 -13 -7
-20 -6 -23 3 -4 8 -8 8 -14 2 -10 -13 -43 -19 -43 -8 0 4 -24 8 -52 8 -60 0
-88 19 -88 60 0 16 -6 25 -15 25 -9 0 -15 9 -15 21 0 12 -16 37 -34 56 -19 18
-35 37 -35 41 -1 4 -16 11 -33 15 -18 5 -37 15 -41 23 -5 8 -12 12 -17 9 -5
-3 -12 0 -16 6 -5 8 -9 8 -14 -1 -6 -9 -14 -8 -33 5 -15 9 -31 14 -36 10 -6
-3 -20 -1 -32 5 -24 13 -41 4 -19 -10 9 -6 10 -10 3 -10 -6 0 -19 7 -28 16
-11 11 -25 14 -45 10 -20 -3 -30 -1 -30 6 0 7 -7 3 -15 -8 -8 -10 -15 -15 -15
-10 0 5 -11 -1 -26 -15 -18 -17 -23 -19 -18 -6 3 10 1 17 -5 17 -6 0 -11 -4
-11 -10 0 -5 -7 -10 -15 -10 -8 0 -15 -4 -15 -10 0 -5 -18 -10 -41 -10 -27 0
-39 -4 -37 -12 2 -6 -4 -20 -14 -30 -21 -21 -24 -79 -6 -108 11 -17 10 -22 -2
-30 -9 -6 -10 -10 -3 -10 14 0 28 -102 18 -127 -8 -20 -10 -28 -19 -88 -9 -59
-16 -75 -51 -127 -25 -35 -35 -43 -39 -32 -3 9 -12 14 -20 11 -8 -3 -18 5 -25
19 -6 13 -16 24 -23 25 -7 0 -4 4 7 9 17 7 17 9 3 9 -19 1 -44 38 -40 59 2 6
-4 12 -13 12 -18 0 -21 30 -2 30 6 0 3 6 -8 12 -11 6 -23 16 -27 22 -5 7 -8 7
-8 -2 0 -10 -13 -13 -46 -11 -31 2 -48 -1 -54 -11 -8 -12 -10 -10 -10 7 0 12
6 24 13 26 9 4 9 6 0 6 -6 1 -19 -9 -27 -21 -14 -20 -21 -18 -17 6 1 5 -5 6
-13 3 -8 -3 -20 1 -26 9 -7 8 -17 14 -22 14 -5 0 -14 5 -21 10 -56 48 -74 60
-87 60 -12 0 -13 2 -1 9 11 7 9 10 -8 16 -11 3 -21 13 -21 21 0 9 -11 14 -29
14 -16 0 -31 5 -33 12 -3 7 -23 12 -45 12 -23 1 -39 4 -36 9 2 4 -14 7 -36 7
-23 0 -41 -4 -41 -9 0 -5 9 -7 20 -4 26 7 26 -9 -1 -25 -15 -10 -19 -20 -15
-40 3 -15 2 -34 -4 -42 -6 -10 -10 -11 -10 -2 0 6 -5 12 -10 12 -6 0 -8 -10
-4 -24 3 -13 1 -27 -5 -31 -6 -3 -9 -11 -5 -16 3 -5 0 -17 -7 -25 -6 -8 -9
-18 -5 -21 4 -4 11 -1 15 6 7 11 9 11 13 0 3 -8 -2 -19 -9 -24 -18 -13 -6 -46
13 -38 8 3 14 0 14 -7 0 -7 8 -10 20 -7 14 3 20 0 20 -10 0 -12 7 -14 30 -9
43 8 90 -3 83 -20 -3 -8 1 -15 8 -15 35 -3 68 -17 88 -36 11 -12 10 -17 -10
-34 -18 -15 -20 -22 -10 -28 9 -6 7 -10 -9 -14 -32 -8 -22 -47 17 -70 26 -15
36 -16 53 -7 25 13 42 4 20 -10 -11 -7 -8 -10 13 -10 20 0 27 -5 27 -20 0 -11
-5 -20 -12 -20 -16 0 -88 -76 -88 -93 0 -8 9 -26 20 -40 25 -31 26 -57 3 -57
-14 0 -15 -2 -5 -9 11 -6 11 -13 3 -30 -28 -53 -30 -60 -22 -63 12 -5 21 -77
10 -83 -5 -4 -9 -15 -9 -27 0 -14 -5 -18 -15 -14 -10 3 -15 -1 -15 -11 0 -9 3
-13 7 -10 12 12 43 -74 43 -119 0 -42 -12 -59 -23 -31 -3 7 -6 6 -6 -5 -1 -24
17 -32 66 -31 44 2 63 -11 44 -30 -6 -6 -11 -19 -11 -29 0 -10 -7 -21 -16 -25
-8 -3 -13 -12 -10 -19 3 -8 2 -14 -2 -14 -10 0 -45 -66 -45 -85 0 -8 -5 -15
-10 -15 -5 0 -7 -6 -4 -14 3 -8 1 -17 -6 -20 -9 -3 -9 -7 0 -13 9 -6 10 -18 4
-39 -4 -16 -9 -66 -10 -112 -1 -70 2 -90 24 -136 25 -53 29 -105 11 -135 -4
-7 -6 -15 -2 -18 3 -3 -2 -12 -10 -20 -11 -11 -12 -19 -4 -28 8 -10 7 -14 -7
-18 -12 -3 -13 -5 -3 -6 8 0 21 -16 29 -33 8 -18 20 -40 28 -50 8 -9 15 -40
16 -72 1 -31 4 -56 8 -56 3 0 7 -11 7 -24 0 -34 33 -100 86 -170 25 -33 43
-63 40 -68 -3 -4 0 -8 5 -8 6 0 11 -8 12 -17 0 -10 21 -35 45 -55 25 -21 42
-38 39 -38 -4 0 12 -17 34 -38 23 -21 41 -42 41 -46 0 -4 13 -19 29 -34 16
-15 32 -37 35 -49 4 -11 13 -24 21 -27 8 -3 15 -11 15 -18 0 -7 19 -21 43 -32
23 -10 50 -22 59 -27 10 -5 29 -9 42 -9 14 0 28 -4 31 -10 3 -5 17 -10 29 -10
28 0 89 -24 81 -32 -3 -3 17 -8 45 -12 30 -4 53 -13 56 -21 5 -12 10 -12 27
-4 16 9 23 8 32 -5 7 -9 23 -16 36 -16 13 0 31 -4 39 -10 9 -6 17 -5 22 3 5 8
8 7 8 -5 0 -11 5 -15 15 -12 10 4 15 0 15 -14 0 -12 8 -27 18 -34 14 -10 18
-25 18 -58 -1 -25 -6 -51 -11 -59 -5 -10 -4 -16 4 -19 8 -3 9 -8 2 -16 -6 -7
-12 -72 -13 -144 -3 -107 -6 -132 -17 -132 -11 0 -9 -4 5 -16 13 -10 15 -17 7
-20 -7 -3 -11 -17 -9 -32 2 -15 1 -21 -1 -14 -11 29 -18 7 -18 -53 0 -36 3
-65 8 -65 4 0 7 -4 7 -10 0 -5 -6 -10 -14 -10 -11 0 -13 -9 -9 -37 4 -26 3
-34 -5 -29 -7 4 -12 14 -12 22 0 8 -5 14 -11 14 -6 0 -9 -7 -5 -15 3 -8 2 -15
-2 -15 -4 0 -9 -8 -10 -17 -4 -46 -9 -64 -20 -75 -7 -7 -12 -19 -12 -28 0 -9
-5 -21 -12 -28 -9 -9 -7 -12 10 -12 13 0 22 -6 22 -15 0 -8 -9 -15 -19 -15
-19 0 -36 24 -32 47 1 9 -4 9 -23 0 -14 -7 -22 -17 -18 -26 4 -11 -1 -13 -22
-9 -18 4 -29 1 -33 -8 -3 -9 -13 -12 -29 -8 -21 5 -23 3 -20 -23 4 -27 2 -29
-23 -25 -17 2 -34 -3 -44 -13 -16 -15 -17 -15 -17 9 0 14 -4 26 -9 26 -5 0 -6
-21 -4 -47 l5 -48 -22 21 c-18 18 -20 25 -11 43 10 18 9 21 -9 21 -17 0 -20
-7 -21 -47 -1 -27 -3 -40 -6 -30 -2 9 -13 17 -24 17 -19 0 -25 11 -12 23 3 4
12 2 20 -4 10 -9 13 -4 13 25 0 23 -4 35 -10 31 -6 -4 -8 -11 -5 -16 4 -5 -1
-9 -9 -9 -19 0 -21 21 -5 37 6 6 8 16 4 22 -8 14 -28 3 -22 -12 2 -7 -2 -20
-11 -29 -10 -12 -11 -18 -4 -18 7 0 12 -7 12 -15 0 -24 -19 -17 -26 10 -4 16
-13 25 -25 25 -10 0 -18 -3 -18 -7 4 -22 -3 -33 -20 -33 -11 0 -21 -6 -24 -12
-4 -10 -7 -10 -18 0 -12 11 -11 16 5 28 11 8 26 14 34 14 7 0 10 5 7 10 -3 6
3 10 14 10 23 0 26 7 12 29 -6 10 -10 10 -16 1 -4 -6 -14 -9 -22 -6 -12 5 -14
1 -10 -14 4 -16 0 -20 -16 -20 -27 1 -61 25 -53 38 7 12 -22 38 -31 28 -3 -3
-1 -6 5 -6 7 0 12 -13 12 -29 0 -16 7 -36 15 -45 17 -16 20 -42 6 -51 -5 -3
-12 -1 -16 5 -9 15 -25 12 -25 -5 0 -8 5 -15 12 -15 6 0 9 -3 6 -6 -8 -7 -48
14 -48 25 0 8 38 24 53 22 13 -2 8 16 -9 30 -13 10 -17 10 -26 -2 -7 -11 -11
-11 -15 -1 -2 6 -11 12 -19 12 -8 0 -14 5 -14 10 0 20 -27 10 -40 -15 -17 -32
-32 -32 -20 0 7 19 6 25 -4 25 -8 0 -16 -6 -19 -12 -2 -8 -8 -9 -13 -4 -5 5
-4 11 4 13 15 6 16 33 0 33 -9 0 -9 3 0 12 9 9 6 16 -12 33 -13 12 -25 28 -28
36 -4 11 -8 12 -19 2 -11 -11 -10 -13 6 -13 15 0 16 -3 7 -12 -18 -18 -14 -30
8 -23 17 6 20 2 17 -25 -4 -34 -20 -41 -25 -10 -2 11 -7 20 -12 20 -5 0 -7 -8
-4 -17 3 -10 -1 -7 -10 7 -8 14 -10 27 -5 28 23 9 -5 20 -36 15 -34 -5 -48 8
-25 22 12 7 4 25 -11 25 -5 0 -9 -8 -9 -19 0 -26 -63 -24 -68 2 -4 19 13 23
24 6 4 -8 9 -7 15 2 13 21 11 29 -6 23 -25 -10 -40 7 -19 23 16 12 17 15 4 23
-9 6 -15 28 -16 59 -2 42 1 51 14 51 14 0 14 2 3 9 -23 15 -42 -12 -32 -45 4
-16 5 -38 1 -49 -4 -11 -6 -23 -3 -27 2 -5 -1 -8 -7 -8 -14 0 -35 20 -41 39
-4 11 -7 11 -20 -1 -12 -12 -17 -13 -27 -2 -7 7 -19 11 -27 8 -8 -4 -15 -1
-15 5 0 6 11 11 25 11 26 0 33 14 15 25 -6 4 -17 2 -24 -4 -7 -6 -16 -8 -19
-4 -4 3 -7 1 -7 -5 0 -7 -6 -12 -12 -12 -7 0 1 14 19 30 l32 30 -20 34 c-15
27 -24 32 -44 28 -14 -2 -25 -8 -25 -12 0 -5 -3 -16 -7 -26 -4 -12 -2 -15 8
-12 8 3 13 11 11 17 -3 17 15 13 22 -4 3 -8 13 -15 21 -15 9 0 14 -4 11 -9 -3
-4 -17 -6 -31 -4 -17 4 -31 -1 -42 -15 -13 -15 -23 -18 -38 -12 -19 8 -19 9 2
9 19 1 22 6 20 42 -1 25 4 44 13 51 12 8 11 9 -3 4 -10 -3 -25 -6 -32 -6 -14
0 -15 -17 -1 -38 10 -16 2 -27 -13 -17 -6 3 -11 17 -11 30 0 21 -26 42 -38 30
-3 -3 0 -5 6 -5 7 0 12 -8 12 -17 0 -15 -2 -16 -10 -3 -8 12 -10 12 -16 -3 -3
-9 -15 -17 -25 -17 -20 0 -26 -15 -9 -25 6 -3 10 -16 9 -28 0 -19 -2 -19 -11
5 -9 26 -13 27 -49 22 -29 -5 -39 -3 -40 7 0 8 -4 4 -9 -9 -11 -25 -30 -30
-30 -7 0 8 4 15 10 15 5 0 12 11 16 25 5 20 9 23 20 14 8 -7 14 -7 14 -1 0 5
-7 15 -15 22 -13 11 -17 8 -26 -20 -7 -18 -15 -27 -18 -21 -10 16 -60 -10 -63
-33 -3 -22 -48 -31 -48 -10 0 7 8 10 20 7 11 -3 20 0 20 6 0 6 -8 11 -17 11
-17 1 -17 1 -1 14 13 9 14 16 6 24 -8 8 -19 6 -40 -9 -15 -11 -28 -16 -28 -10
0 6 -7 11 -16 11 -8 0 -12 5 -9 11 4 6 13 8 21 5 16 -6 31 13 17 23 -6 3 -13
13 -16 21 -4 12 -6 11 -6 -2 -1 -10 -9 -18 -18 -18 -12 0 -14 3 -6 11 18 18 3
49 -23 49 -13 0 -24 -5 -24 -11 0 -6 7 -9 15 -5 18 7 20 -10 3 -17 -10 -4 -9
-8 2 -17 13 -10 13 -11 -3 -6 -9 3 -17 1 -17 -5 0 -6 -5 -7 -10 -4 -8 5 -8 11
-1 19 16 19 -5 33 -39 28 -19 -3 -30 -10 -30 -21 -1 -14 -2 -14 -11 2 -5 9
-18 17 -29 17 -18 0 -38 36 -26 47 3 3 0 15 -5 26 -8 15 -8 22 2 28 11 7 11 9
1 9 -7 0 -12 6 -10 14 2 8 -1 14 -7 13 -5 -1 -10 -15 -11 -32 -2 -46 -3 -48
-17 -36 -8 6 -17 8 -20 4 -4 -3 -7 -2 -7 4 0 5 3 13 7 17 4 4 9 18 10 31 3 22
0 25 -27 25 -34 0 -37 6 -12 29 9 9 18 24 18 34 3 27 -10 20 -23 -13 -12 -31
-33 -41 -33 -15 0 23 -29 18 -40 -7 -8 -18 -9 -16 -4 12 4 19 12 38 18 42 6 5
-6 6 -26 3 -33 -3 -38 -1 -38 15 0 11 -4 20 -10 20 -5 0 -10 -4 -10 -9 0 -5
-7 -8 -15 -7 -9 1 -15 5 -15 9 0 4 0 14 0 22 0 9 6 12 15 9 11 -5 13 -2 9 9
-3 9 -12 13 -20 10 -8 -3 -14 1 -14 11 0 20 14 21 30 1 14 -17 25 -12 25 13 0
10 7 16 17 16 10 -1 14 4 11 12 -7 20 18 41 44 36 13 -2 23 -8 23 -12 0 -4 11
-10 25 -12 14 -3 22 -1 18 5 -3 5 11 7 38 3 29 -3 36 -3 19 3 -23 7 -23 8 -5
13 11 3 2 3 -20 0 -22 -2 -37 -1 -33 3 4 4 3 15 -2 24 -5 11 -5 23 2 32 8 11
9 11 4 -3 -3 -12 0 -18 9 -18 9 0 12 6 8 16 -5 13 -2 15 18 9 20 -7 22 -6 12
6 -14 17 -13 101 0 110 12 9 -2 71 -15 63 -5 -3 -7 -17 -4 -30 4 -13 2 -24 -3
-24 -6 0 -7 -8 -4 -17 5 -13 2 -15 -11 -10 -10 4 -19 7 -21 7 -2 0 -1 9 2 20
3 11 9 20 14 20 5 0 6 7 2 16 -4 11 1 22 12 30 18 13 17 14 -6 15 -13 0 -19 3
-12 5 7 3 9 12 6 20 -4 10 3 14 28 14 31 0 32 -1 13 -15 -18 -14 -18 -14 5
-15 19 0 22 -4 18 -23 -7 -24 7 -56 19 -44 4 3 2 13 -5 21 -9 11 -8 15 4 20
19 7 20 26 0 26 -18 0 -21 54 -5 94 12 33 45 34 97 5 l38 -21 -29 31 c-25 26
-27 33 -16 46 8 10 23 15 38 12 14 -3 26 1 29 9 7 20 26 17 41 -6 11 -18 10
-20 -15 -21 -16 -1 -38 0 -50 1 -13 1 -23 -3 -23 -9 0 -6 9 -11 20 -11 11 0
20 -4 20 -10 0 -5 5 -10 10 -10 6 0 10 7 10 15 0 10 10 15 31 15 24 0 30 3 25
16 -3 9 -6 20 -6 25 0 5 -7 9 -15 9 -8 0 -15 5 -15 10 0 16 -22 12 -35 -7 -8
-11 -14 -13 -19 -5 -4 7 -2 12 5 12 8 0 8 4 -1 15 -7 9 -21 13 -30 10 -14 -4
-16 -1 -12 20 3 18 0 25 -12 25 -9 0 -16 6 -16 14 0 8 -3 22 -7 31 -5 16 -4
15 15 -1 12 -10 22 -24 22 -31 0 -7 9 -13 19 -13 12 0 24 -11 30 -27 l11 -28
-5 29 c-5 23 -3 27 10 22 13 -4 14 -2 5 14 -13 25 -32 36 -23 14 5 -13 1 -12
-16 5 -13 13 -20 25 -17 28 7 7 -22 63 -33 63 -5 0 -7 -8 -4 -19 3 -10 0 -22
-5 -25 -6 -4 -8 2 -5 14 3 11 0 20 -6 20 -6 0 -11 -4 -11 -10 0 -5 -9 -10 -20
-10 -11 0 -20 5 -20 10 0 6 9 10 20 10 11 0 20 4 20 9 0 5 9 13 20 16 30 9 16
22 -18 17 -16 -2 -33 1 -36 7 -5 7 2 11 17 11 20 0 24 5 25 35 2 39 -12 47
-22 13 -5 -19 -8 -20 -16 -8 -5 8 -7 24 -4 35 4 17 0 20 -28 22 -27 1 -29 0
-13 -7 19 -9 19 -9 -2 -16 -16 -4 -23 -14 -23 -31 0 -19 4 -24 16 -19 8 3 12
2 9 -4 -3 -6 -1 -10 4 -10 6 0 11 5 11 10 0 6 5 10 12 10 6 0 3 -9 -7 -20 -10
-11 -29 -20 -42 -20 -21 0 -23 4 -23 49 0 28 5 53 10 56 12 7 13 35 2 35 -10
0 -32 -68 -32 -99 l0 -21 -20 20 c-24 24 -25 31 -3 23 12 -5 15 -2 10 10 -3 9
-2 17 3 17 6 0 10 5 10 10 0 6 -9 10 -20 10 -11 0 -20 -7 -20 -15 0 -8 -7 -15
-15 -15 -9 0 -12 6 -9 15 4 8 2 15 -4 15 -6 0 -12 -6 -15 -12 -2 -8 -8 -9 -13
-4 -5 5 -4 11 4 13 6 3 12 13 12 24 0 10 4 19 10 19 5 0 7 -7 4 -15 -5 -11 1
-15 25 -15 35 0 42 15 11 25 -16 5 -18 10 -10 25 7 13 6 20 -3 23 -12 4 -22 1
-64 -22 -28 -14 -29 -8 -3 17 21 19 20 19 -25 36 -25 10 -52 15 -60 12 -19 -7
-26 6 -14 24 6 11 9 12 9 2 0 -9 7 -11 20 -7 11 3 20 2 20 -3 0 -5 10 -12 22
-15 13 -2 31 -8 41 -12 10 -4 17 -3 17 4 0 6 -8 11 -18 11 -21 0 -64 29 -44
30 7 0 26 -7 41 -15 34 -17 52 -7 19 12 -13 7 -17 12 -10 13 6 0 12 6 12 14 0
15 27 29 40 21 4 -3 6 4 3 15 l-6 21 -19 -21 c-23 -24 -21 -24 -64 -4 -39 19
-43 29 -14 37 14 4 19 12 17 27 -4 27 -26 41 -52 35 -11 -3 -14 -2 -8 1 23 10
-8 104 -34 104 -7 0 -13 5 -13 11 0 6 7 9 15 6 17 -7 29 8 20 23 -5 8 -12 7
-23 -2 -13 -11 -15 -10 -10 10 4 12 2 22 -3 22 -5 0 -9 -47 -9 -104 0 -83 3
-105 15 -110 8 -3 15 -11 15 -17 0 -8 -4 -8 -15 1 -13 11 -15 7 -15 -28 0 -35
3 -40 27 -45 15 -3 35 -1 45 4 23 13 68 11 68 -2 0 -7 -12 -10 -30 -7 -20 3
-30 0 -30 -9 0 -15 -5 -16 -47 -4 l-31 9 -1 -1474 -1 -1474 4555 0 4555 0 0
1180 c0 978 -2 1180 -13 1187 -37 21 -37 193 -1 193 13 0 15 38 13 321 -2 264
-4 319 -15 315 -9 -3 -14 2 -14 14 0 10 -5 22 -10 25 -22 14 -60 110 -60 153
0 39 2 43 20 37 11 -3 20 -3 20 2 0 4 14 14 30 21 27 13 30 18 30 63 0 47 -1
49 -27 48 -17 -1 -21 -3 -10 -6 9 -2 17 -9 17 -14 0 -16 -62 -7 -84 10 -10 9
-20 15 -22 14 -2 -2 -4 0 -3 4 0 4 -9 10 -20 15 -19 7 -21 16 -21 83 0 55 3
74 13 72 6 -1 12 5 12 13 0 8 -6 14 -12 13 -7 -2 -13 5 -14 15 -2 70 0 163 6
259 7 98 5 121 -14 192 -12 45 -20 85 -17 89 7 12 -15 92 -26 92 -5 0 -6 9 -3
20 4 14 2 20 -6 18 -7 -2 -13 2 -14 7 0 6 -4 16 -8 23 -5 6 -6 16 -2 22 10 16
-19 50 -42 50 -13 0 -23 5 -23 10 0 6 -11 10 -25 10 -24 0 -30 9 -25 39 1 9
-4 12 -15 7 -11 -4 -27 4 -47 24 -16 17 -26 30 -22 30 4 0 -5 11 -20 25 -15
14 -31 25 -37 25 -5 0 -9 6 -9 14 0 8 -10 16 -23 20 -13 3 -29 17 -37 31 -7
14 -19 25 -27 25 -7 0 -13 7 -13 16 0 8 -4 13 -9 9 -5 -3 -16 3 -23 13 -7 11
-27 26 -45 35 -33 17 -71 77 -50 77 7 0 4 7 -6 14 -10 8 -14 17 -9 20 11 6 3
66 -9 66 -5 0 -10 8 -10 18 -1 9 -5 4 -9 -13 -6 -23 -8 -25 -9 -9 0 12 -8 24
-16 28 -11 4 -14 13 -9 31 5 20 3 24 -9 19 -10 -3 -18 2 -22 17 -5 15 -10 18
-15 9 -5 -8 -9 -4 -14 13 -3 14 -15 27 -28 30 -22 6 -22 7 -3 21 19 14 19 15
-10 12 -34 -4 -59 27 -71 88 -4 26 -11 36 -22 34 -9 -2 -17 2 -17 9 0 6 -3 14
-7 18 -4 4 0 14 8 22 13 13 10 19 -22 50 -35 32 -36 35 -18 48 18 14 18 15 -5
34 -13 10 -21 23 -17 30 4 6 2 11 -3 11 -6 0 -11 7 -11 15 0 9 -9 15 -25 15
-25 0 -37 20 -12 20 8 1 7 4 -3 13 -16 13 -21 27 -24 64 0 13 -5 23 -11 23 -5
0 -3 5 5 10 13 8 13 12 1 32 -10 16 -11 23 -2 26 7 2 4 11 -10 23 -12 10 -17
19 -11 19 7 0 12 5 12 10 0 6 -6 10 -13 10 -6 0 -18 14 -26 30 -10 24 -10 34
-1 46 14 16 15 16 -20 31 -18 9 -20 12 -7 12 23 1 22 37 -2 44 -12 3 -21 17
-25 41 -4 20 -11 36 -15 36 -11 0 -21 63 -11 73 4 4 -2 25 -12 47 -11 21 -20
52 -20 69 -1 17 -4 29 -7 26 -4 -2 -8 4 -8 13 -8 76 -27 152 -38 152 -12 0
-30 52 -26 79 1 7 -2 10 -8 7 -5 -4 -12 -2 -16 4 -3 5 -1 10 6 10 10 0 10 3 1
12 -7 7 -12 20 -12 30 0 9 -7 21 -16 26 -9 5 -18 24 -19 43 -5 46 -5 47 -16
24 -7 -15 -8 -10 -4 20 3 24 1 35 -4 26 -5 -8 -14 -10 -21 -6 -10 6 -9 11 5
22 11 7 13 13 7 13 -7 0 -12 7 -12 15 0 9 -7 18 -15 21 -8 4 -15 12 -15 20 0
8 -11 32 -25 54 -16 26 -21 40 -13 40 7 1 4 6 -7 13 -13 8 -20 22 -20 40 1 15
-2 27 -6 27 -4 0 -9 10 -12 21 -4 13 -11 20 -20 16 -10 -4 -13 1 -9 18 3 17
-2 25 -17 30 -12 3 -21 11 -21 16 0 6 5 7 11 4 6 -4 5 2 -2 13 -7 12 -19 18
-28 14 -10 -4 -13 -1 -9 9 4 9 -2 21 -14 28 -13 8 -17 18 -13 32 6 18 4 20
-17 15 -12 -3 -17 -3 -10 0 19 9 14 24 -8 24 -11 0 -20 5 -20 10 0 6 8 10 18
10 14 0 15 2 2 10 -8 5 -15 15 -15 22 -1 7 -7 12 -14 10 -7 -1 -19 5 -27 15
-8 11 -13 13 -14 6 0 -29 -20 -10 -21 20 l-1 32 -8 -30 -8 -30 -2 35 c-1 19
-4 27 -7 18 -6 -25 -23 -22 -23 3 0 16 -4 19 -20 14 -15 -5 -20 -2 -20 12 0
15 -2 16 -10 3 -8 -13 -11 -11 -16 8 -4 12 -14 22 -24 22 -10 0 -20 9 -23 20
-3 14 -14 20 -32 20 -14 0 -24 4 -20 9 3 6 -2 14 -11 19 -9 5 -17 21 -17 35
-2 25 -17 40 -17 17 0 -5 -4 -10 -10 -10 -5 0 -10 7 -10 15 0 8 -9 15 -20 15
-11 0 -20 6 -20 13 0 6 -14 20 -31 30 -17 9 -33 26 -36 37 -3 11 -12 20 -19
20 -8 0 -14 3 -14 8 0 4 -10 12 -22 17 -13 6 -28 20 -34 33 l-11 22 -12 -22
c-11 -21 -11 -20 -6 10 4 29 2 32 -21 32 -19 0 -25 4 -20 15 4 11 -2 15 -21
15 -21 0 -24 2 -13 15 11 13 8 15 -21 16 -19 1 -40 1 -47 0 -10 -2 -13 7 -9
33 4 32 2 36 -17 36 -20 -1 -20 -1 -3 -14 13 -10 15 -16 6 -22 -7 -4 -20 3
-31 19 -11 15 -29 27 -40 27 -11 0 -22 8 -25 19 -3 11 -11 17 -18 14 -8 -2
-22 0 -32 6 -16 9 -16 10 5 11 12 0 22 5 22 10 0 6 -8 10 -19 10 -14 0 -17 6
-15 28 2 15 1 19 -2 10 -3 -10 -12 -18 -19 -18 -7 0 -15 -6 -18 -12 -4 -10 -7
-10 -18 0 -11 10 -10 12 2 12 9 0 21 11 27 25 17 38 15 41 -9 14 -15 -16 -23
-20 -26 -11 -8 20 -22 14 -16 -8 3 -11 0 -20 -6 -20 -5 0 -8 7 -5 15 4 8 1 15
-6 15 -7 0 -10 8 -7 19 4 17 2 18 -19 9 -13 -6 -25 -18 -27 -27 -3 -9 -5 1 -6
22 -1 23 -6 37 -14 37 -9 0 -12 -10 -9 -30 5 -38 -11 -39 -42 -3 -16 18 -33
26 -54 26 -18 0 -32 4 -32 9 0 4 16 8 35 8 19 0 35 4 35 9 0 5 -9 7 -20 4 -11
-3 -31 -2 -45 1 -20 5 -25 11 -20 26 5 15 2 17 -14 13 -15 -4 -23 1 -29 18 -9
23 -9 23 -16 -4 -3 -15 -2 -35 3 -45 6 -10 11 -12 11 -4 0 17 18 15 37 -3 22
-22 13 -26 -30 -14 l-37 10 -1 62 c-1 34 -3 54 -6 44 -4 -15 -13 -18 -51 -15
-39 3 -48 7 -50 24 -3 19 2 21 53 20 30 -1 55 2 55 5 0 11 40 18 46 8 8 -13
24 -1 24 18 0 11 -4 13 -12 5 -7 -5 -42 -9 -78 -8 -36 1 -71 -3 -77 -8 -8 -5
-13 -4 -13 2 0 7 -16 11 -37 10 -33 -1 -35 -2 -15 -11 22 -10 30 -27 12 -27
-5 0 -10 -4 -10 -10 0 -5 7 -10 15 -10 8 0 15 -5 15 -11 0 -6 -7 -8 -17 -5 -9
4 -20 1 -25 -6 -6 -10 -8 -8 -8 5 0 20 -16 23 -23 5 -2 -7 -2 -1 0 15 3 15 0
27 -6 27 -6 0 -11 -7 -11 -15 0 -8 -4 -15 -9 -15 -5 0 -12 -8 -15 -17 -3 -10
-4 8 -2 40 3 65 -7 75 -22 20 -5 -21 -10 -30 -11 -19 -1 11 -6 16 -15 13 -10
-4 -16 2 -18 20 -4 31 -24 42 -31 16 -3 -10 -5 -1 -6 20 -1 25 -5 36 -12 31
-6 -3 -9 -17 -6 -30 2 -14 0 -27 -4 -30 -5 -3 -9 3 -9 13 0 10 -11 31 -23 47
-20 25 -25 27 -30 12 -4 -10 -1 -19 8 -22 21 -9 18 -24 -4 -24 -24 0 -39 39
-20 51 11 6 11 11 2 20 -10 10 -14 9 -19 -4 -9 -24 -50 -22 -57 3 -5 20 -37
29 -37 10 0 -5 5 -10 10 -10 6 0 10 -7 10 -15 0 -22 -21 -18 -27 4 -3 12 -11
17 -19 14 -9 -3 -14 2 -14 17 0 34 -20 12 -21 -23 l-1 -32 -10 28 c-7 19 -19
30 -39 34 -27 5 -42 23 -19 23 14 0 12 27 -2 37 -7 4 -37 10 -67 13 -39 5 -54
3 -58 -7z"/>
</g>
</svg>
